<svg xmlns="http://www.w3.org/2000/svg" xmlns:xlink="http://www.w3.org/1999/xlink" id="processonSvg1000" viewBox="164.9999999999997 349.99999999999994 1350.7385348111457 1323.3847736625519" width="1350.7385348111457" height="1323.3847736625519"><defs id="ProcessOnDefs1001"><marker id="ProcessOnMarker1021" markerUnits="userSpaceOnUse" orient="auto" markerWidth="16.23606797749979" markerHeight="10.550836550532098" viewBox="-1.0 -1.3763819204711736 16.23606797749979 10.550836550532098" refX="-1.0" refY="3.8990363547948754"><path id="ProcessOnPath1022" d="M12.0 3.8990363547948754L0.0 7.798072709589751V0.0Z" stroke="#323232" stroke-width="2.0" fill="#323232" transform="matrix(1.0,0.0,0.0,1.0,0.0,0.0)"/></marker><marker id="ProcessOnMarker1035" markerUnits="userSpaceOnUse" orient="auto" markerWidth="16.23606797749979" markerHeight="10.550836550532098" viewBox="-1.0 -1.3763819204711736 16.23606797749979 10.550836550532098" refX="-1.0" refY="3.8990363547948754"><path id="ProcessOnPath1036" d="M12.0 3.8990363547948754L0.0 7.798072709589751V0.0Z" stroke="#323232" stroke-width="2.0" fill="#323232" transform="matrix(1.0,0.0,0.0,1.0,0.0,0.0)"/></marker><marker id="ProcessOnMarker1039" markerUnits="userSpaceOnUse" orient="auto" markerWidth="16.23606797749979" markerHeight="10.550836550532098" viewBox="-1.0 -1.3763819204711736 16.23606797749979 10.550836550532098" refX="-1.0" refY="3.8990363547948754"><path id="ProcessOnPath1040" d="M12.0 3.8990363547948754L0.0 7.798072709589751V0.0Z" stroke="#323232" stroke-width="2.0" fill="#323232" transform="matrix(1.0,0.0,0.0,1.0,0.0,0.0)"/></marker><marker id="ProcessOnMarker1043" markerUnits="userSpaceOnUse" orient="auto" markerWidth="16.23606797749979" markerHeight="10.550836550532098" viewBox="-1.0 -1.3763819204711736 16.23606797749979 10.550836550532098" refX="-1.0" refY="3.8990363547948754"><path id="ProcessOnPath1044" d="M12.0 3.8990363547948754L0.0 7.798072709589751V0.0Z" stroke="#323232" stroke-width="2.0" fill="#323232" transform="matrix(1.0,0.0,0.0,1.0,0.0,0.0)"/></marker><marker id="ProcessOnMarker1054" markerUnits="userSpaceOnUse" orient="auto" markerWidth="16.23606797749979" markerHeight="10.550836550532098" viewBox="-1.0 -1.3763819204711736 16.23606797749979 10.550836550532098" refX="-1.0" refY="3.8990363547948754"><path id="ProcessOnPath1055" d="M12.0 3.8990363547948754L0.0 7.798072709589751V0.0Z" stroke="#323232" stroke-width="2.0" fill="#323232" transform="matrix(1.0,0.0,0.0,1.0,0.0,0.0)"/></marker><marker id="ProcessOnMarker1068" markerUnits="userSpaceOnUse" orient="auto" markerWidth="16.23606797749979" markerHeight="10.550836550532098" viewBox="-1.0 -1.3763819204711736 16.23606797749979 10.550836550532098" refX="-1.0" refY="3.8990363547948754"><path id="ProcessOnPath1069" d="M12.0 3.8990363547948754L0.0 7.798072709589751V0.0Z" stroke="#323232" stroke-width="2.0" fill="#323232" transform="matrix(1.0,0.0,0.0,1.0,0.0,0.0)"/></marker><marker id="ProcessOnMarker1078" markerUnits="userSpaceOnUse" orient="auto" markerWidth="16.23606797749979" markerHeight="10.550836550532098" viewBox="-1.0 -1.3763819204711736 16.23606797749979 10.550836550532098" refX="-1.0" refY="3.8990363547948754"><path id="ProcessOnPath1079" d="M12.0 3.8990363547948754L0.0 7.798072709589751V0.0Z" stroke="#323232" stroke-width="2.0" fill="#323232" transform="matrix(1.0,0.0,0.0,1.0,0.0,0.0)"/></marker><marker id="ProcessOnMarker1082" markerUnits="userSpaceOnUse" orient="auto" markerWidth="16.23606797749979" markerHeight="10.550836550532098" viewBox="-1.0 -1.3763819204711736 16.23606797749979 10.550836550532098" refX="-1.0" refY="3.8990363547948754"><path id="ProcessOnPath1083" d="M12.0 3.8990363547948754L0.0 7.798072709589751V0.0Z" stroke="#323232" stroke-width="2.0" fill="#323232" transform="matrix(1.0,0.0,0.0,1.0,0.0,0.0)"/></marker><marker id="ProcessOnMarker1098" markerUnits="userSpaceOnUse" orient="auto" markerWidth="16.23606797749979" markerHeight="10.550836550532098" viewBox="-1.0 -1.3763819204711736 16.23606797749979 10.550836550532098" refX="-1.0" refY="3.8990363547948754"><path id="ProcessOnPath1099" d="M12.0 3.8990363547948754L0.0 7.798072709589751V0.0Z" stroke="#323232" stroke-width="2.0" fill="#323232" transform="matrix(1.0,0.0,0.0,1.0,0.0,0.0)"/></marker><marker id="ProcessOnMarker1102" markerUnits="userSpaceOnUse" orient="auto" markerWidth="16.23606797749979" markerHeight="10.550836550532098" viewBox="-1.0 -1.3763819204711736 16.23606797749979 10.550836550532098" refX="-1.0" refY="3.8990363547948754"><path id="ProcessOnPath1103" d="M12.0 3.8990363547948754L0.0 7.798072709589751V0.0Z" stroke="#323232" stroke-width="2.0" fill="#323232" transform="matrix(1.0,0.0,0.0,1.0,0.0,0.0)"/></marker><marker id="ProcessOnMarker1112" markerUnits="userSpaceOnUse" orient="auto" markerWidth="16.23606797749979" markerHeight="10.550836550532098" viewBox="-1.0 -1.3763819204711736 16.23606797749979 10.550836550532098" refX="-1.0" refY="3.8990363547948754"><path id="ProcessOnPath1113" d="M12.0 3.8990363547948754L0.0 7.798072709589751V0.0Z" stroke="#323232" stroke-width="2.0" fill="#323232" transform="matrix(1.0,0.0,0.0,1.0,0.0,0.0)"/></marker><marker id="ProcessOnMarker1116" markerUnits="userSpaceOnUse" orient="auto" markerWidth="16.23606797749979" markerHeight="10.550836550532098" viewBox="-1.0 -1.3763819204711736 16.23606797749979 10.550836550532098" refX="-1.0" refY="3.8990363547948754"><path id="ProcessOnPath1117" d="M12.0 3.8990363547948754L0.0 7.798072709589751V0.0Z" stroke="#323232" stroke-width="2.0" fill="#323232" transform="matrix(1.0,0.0,0.0,1.0,0.0,0.0)"/></marker><marker id="ProcessOnMarker1166" markerUnits="userSpaceOnUse" orient="auto" markerWidth="16.23606797749979" markerHeight="10.550836550532098" viewBox="-1.0 -1.3763819204711736 16.23606797749979 10.550836550532098" refX="-1.0" refY="3.8990363547948754"><path id="ProcessOnPath1167" d="M12.0 3.8990363547948754L0.0 7.798072709589751V0.0Z" stroke="#323232" stroke-width="2.0" fill="#323232" transform="matrix(1.0,0.0,0.0,1.0,0.0,0.0)"/></marker><marker id="ProcessOnMarker1170" markerUnits="userSpaceOnUse" orient="auto" markerWidth="16.23606797749979" markerHeight="10.550836550532098" viewBox="-1.0 -1.3763819204711736 16.23606797749979 10.550836550532098" refX="-1.0" refY="3.8990363547948754"><path id="ProcessOnPath1171" d="M12.0 3.8990363547948754L0.0 7.798072709589751V0.0Z" stroke="#323232" stroke-width="2.0" fill="#323232" transform="matrix(1.0,0.0,0.0,1.0,0.0,0.0)"/></marker><marker id="ProcessOnMarker1174" markerUnits="userSpaceOnUse" orient="auto" markerWidth="16.23606797749979" markerHeight="10.550836550532098" viewBox="-1.0 -1.3763819204711736 16.23606797749979 10.550836550532098" refX="-1.0" refY="3.8990363547948754"><path id="ProcessOnPath1175" d="M12.0 3.8990363547948754L0.0 7.798072709589751V0.0Z" stroke="#323232" stroke-width="2.0" fill="#323232" transform="matrix(1.0,0.0,0.0,1.0,0.0,0.0)"/></marker><marker id="ProcessOnMarker1187" markerUnits="userSpaceOnUse" orient="auto" markerWidth="16.23606797749979" markerHeight="10.550836550532098" viewBox="-1.0 -1.3763819204711736 16.23606797749979 10.550836550532098" refX="-1.0" refY="3.8990363547948754"><path id="ProcessOnPath1188" d="M12.0 3.8990363547948754L0.0 7.798072709589751V0.0Z" stroke="#323232" stroke-width="2.0" fill="#323232" transform="matrix(1.0,0.0,0.0,1.0,0.0,0.0)"/></marker><marker id="ProcessOnMarker1191" markerUnits="userSpaceOnUse" orient="auto" markerWidth="16.23606797749979" markerHeight="10.550836550532098" viewBox="-1.0 -1.3763819204711736 16.23606797749979 10.550836550532098" refX="-1.0" refY="3.8990363547948754"><path id="ProcessOnPath1192" d="M12.0 3.8990363547948754L0.0 7.798072709589751V0.0Z" stroke="#323232" stroke-width="2.0" fill="#323232" transform="matrix(1.0,0.0,0.0,1.0,0.0,0.0)"/></marker><marker id="ProcessOnMarker1201" markerUnits="userSpaceOnUse" orient="auto" markerWidth="16.23606797749979" markerHeight="10.550836550532098" viewBox="-1.0 -1.3763819204711736 16.23606797749979 10.550836550532098" refX="-1.0" refY="3.8990363547948754"><path id="ProcessOnPath1202" d="M12.0 3.8990363547948754L0.0 7.798072709589751V0.0Z" stroke="#323232" stroke-width="2.0" fill="#323232" transform="matrix(1.0,0.0,0.0,1.0,0.0,0.0)"/></marker><marker id="ProcessOnMarker1205" markerUnits="userSpaceOnUse" orient="auto" markerWidth="16.23606797749979" markerHeight="10.550836550532098" viewBox="-1.0 -1.3763819204711736 16.23606797749979 10.550836550532098" refX="-1.0" refY="3.8990363547948754"><path id="ProcessOnPath1206" d="M12.0 3.8990363547948754L0.0 7.798072709589751V0.0Z" stroke="#323232" stroke-width="2.0" fill="#323232" transform="matrix(1.0,0.0,0.0,1.0,0.0,0.0)"/></marker><marker id="ProcessOnMarker1214" markerUnits="userSpaceOnUse" orient="auto" markerWidth="16.23606797749979" markerHeight="10.550836550532098" viewBox="-1.0 -1.3763819204711736 16.23606797749979 10.550836550532098" refX="-1.0" refY="3.8990363547948754"><path id="ProcessOnPath1215" d="M12.0 3.8990363547948754L0.0 7.798072709589751V0.0Z" stroke="#323232" stroke-width="2.0" fill="#323232" transform="matrix(1.0,0.0,0.0,1.0,0.0,0.0)"/></marker><marker id="ProcessOnMarker1218" markerUnits="userSpaceOnUse" orient="auto" markerWidth="16.23606797749979" markerHeight="10.550836550532098" viewBox="-1.0 -1.3763819204711736 16.23606797749979 10.550836550532098" refX="-1.0" refY="3.8990363547948754"><path id="ProcessOnPath1219" d="M12.0 3.8990363547948754L0.0 7.798072709589751V0.0Z" stroke="#323232" stroke-width="2.0" fill="#323232" transform="matrix(1.0,0.0,0.0,1.0,0.0,0.0)"/></marker><marker id="ProcessOnMarker1226" markerUnits="userSpaceOnUse" orient="auto" markerWidth="16.23606797749979" markerHeight="10.550836550532098" viewBox="-1.0 -1.3763819204711736 16.23606797749979 10.550836550532098" refX="-1.0" refY="3.8990363547948754"><path id="ProcessOnPath1227" d="M12.0 3.8990363547948754L0.0 7.798072709589751V0.0Z" stroke="#323232" stroke-width="2.0" fill="#323232" transform="matrix(1.0,0.0,0.0,1.0,0.0,0.0)"/></marker><marker id="ProcessOnMarker1230" markerUnits="userSpaceOnUse" orient="auto" markerWidth="16.23606797749979" markerHeight="10.550836550532098" viewBox="-1.0 -1.3763819204711736 16.23606797749979 10.550836550532098" refX="-1.0" refY="3.8990363547948754"><path id="ProcessOnPath1231" d="M12.0 3.8990363547948754L0.0 7.798072709589751V0.0Z" stroke="#323232" stroke-width="2.0" fill="#323232" transform="matrix(1.0,0.0,0.0,1.0,0.0,0.0)"/></marker></defs><g id="ProcessOnG1002"><path id="ProcessOnPath1003" d="M164.9999999999997 349.99999999999994H1515.7385348111454V1673.3847736625519H164.99999999999977V350.0Z" fill="none"/><g id="ProcessOnG1004"><g id="ProcessOnG1005" transform="matrix(1.0,0.0,0.0,1.0,717.4404761904741,973.2142857142856)" opacity="1.0"><path id="ProcessOnPath1006" d="M0.0 0.0L315.71428571428555 0.0L315.71428571428555 332.8571428571428L0.0 332.8571428571428Z" stroke="#323232" stroke-width="2.0" stroke-dasharray="none" opacity="1.0" fill="#ffffff"/><g id="ProcessOnG1007" transform="matrix(1.0,0.0,0.0,1.0,10.0,153.3035714285714)"><text id="ProcessOnText1008" fill="#000000" font-size="21" x="0.0" y="21.525" font-family="微软雅黑" font-weight="bold" font-style="normal" text-decoration="none" family="微软雅黑" text-anchor="start" size="21">训练集</text></g></g><g id="ProcessOnG1009" transform="matrix(1.0,0.0,0.0,1.0,616.3333333333334,369.99999999999994)" opacity="1.0"><path id="ProcessOnPath1010" d="M0.0 0.0L773.6666666666664 0.0L773.6666666666664 477.6666666666668L0.0 477.6666666666668Z" stroke="#323232" stroke-width="2.0" stroke-dasharray="none" opacity="1.0" fill="#ffffff"/></g><g id="ProcessOnG1011" transform="matrix(1.0,0.0,0.0,1.0,787.3333333333326,502.6666666666668)" opacity="1.0"><path id="ProcessOnPath1012" d="M0.0 35.0L45.0 0.0L90.0 35.0L45.0 70.0L0.0 35.0Z" stroke="#323232" stroke-width="2.0" stroke-dasharray="none" opacity="1.0" fill="#ffffff"/><g id="ProcessOnG1013" transform="matrix(1.0,0.0,0.0,1.0,10.0,26.875)"><text id="ProcessOnText1014" fill="#000000" font-size="13" x="34.0" y="13.325" font-family="微软雅黑" font-weight="bold" font-style="normal" text-decoration="none" family="微软雅黑" text-anchor="middle" size="13">切割</text></g></g><g id="ProcessOnG1015" transform="matrix(1.0,0.0,0.0,1.0,654.3333333333334,512.6666666666667)" opacity="1.0"><path id="ProcessOnPath1016" d="M16.666666666666668 0.0L83.33333333333333 0.0C105.55555555555556 0.0 105.55555555555556 50.0 83.33333333333333 50.0L16.666666666666668 50.0C-5.555555555555556 50.0 -5.555555555555556 0.0 16.666666666666668 0.0Z" stroke="#323232" stroke-width="2.0" stroke-dasharray="none" opacity="1.0" fill="#ffffff"/><g id="ProcessOnG1017" transform="matrix(1.0,0.0,0.0,1.0,10.0,16.875)"><text id="ProcessOnText1018" fill="#000000" font-size="13" x="39.0" y="13.325" font-family="微软雅黑" font-weight="bold" font-style="normal" text-decoration="none" family="微软雅黑" text-anchor="middle" size="13">文件</text></g></g><g id="ProcessOnG1019"><path id="ProcessOnPath1020" d="M754.3333333333329 537.6666666666666L770.8333333333328 537.6666666666666L770.8333333333328 537.6666666666666L772.0972653558327 537.6666666666666" stroke="#323232" stroke-width="2.0" stroke-dasharray="none" fill="none" marker-end="url(#ProcessOnMarker1021)"/></g><g id="ProcessOnG1023" transform="matrix(1.0,0.0,0.0,1.0,956.2083333333328,379.6666666666667)" opacity="1.0"><path id="ProcessOnPath1024" d="M0.0 40.5L107.25 0.0L214.5 40.5L107.25 81.0L0.0 40.5Z" stroke="#323232" stroke-width="2.0" stroke-dasharray="none" opacity="1.0" fill="#ffffff"/><g id="ProcessOnG1025" transform="matrix(1.0,0.0,0.0,1.0,10.0,25.5)"><text id="ProcessOnText1026" fill="#000000" font-size="12" x="96.25" y="12.3" font-family="微软雅黑" font-weight="bold" font-style="normal" text-decoration="none" family="微软雅黑" text-anchor="middle" size="12">加到词单(不重复)</text><text id="ProcessOnText1027" fill="#000000" font-size="12" x="96.25" y="27.3" font-family="微软雅黑" font-weight="bold" font-style="normal" text-decoration="none" family="微软雅黑" text-anchor="middle" size="12">map&lt;string,int&gt;</text></g></g><g id="ProcessOnG1028" transform="matrix(1.0,0.0,0.0,1.0,959.2083333333328,605.1666666666667)" opacity="1.0"><path id="ProcessOnPath1029" d="M0.0 39.5L103.75 0.0L207.5 39.5L103.75 79.0L0.0 39.5Z" stroke="#323232" stroke-width="2.0" stroke-dasharray="none" opacity="1.0" fill="#ffffff"/><g id="ProcessOnG1030" transform="matrix(1.0,0.0,0.0,1.0,10.0,23.25)"><text id="ProcessOnText1031" fill="#000000" font-size="13" x="92.75" y="13.325" font-family="微软雅黑" font-weight="bold" font-style="normal" text-decoration="none" family="微软雅黑" text-anchor="middle" size="13">加到文本矩阵</text><text id="ProcessOnText1032" fill="#000000" font-size="13" x="92.75" y="29.575" font-family="微软雅黑" font-weight="bold" font-style="normal" text-decoration="none" family="微软雅黑" text-anchor="middle" size="13">vector&lt;vector&lt;int&gt;&gt;</text></g></g><g id="ProcessOnG1033"><path id="ProcessOnPath1034" d="M832.3333333333326 502.6666666666668L832.3333333333326 420.1666666666667L940.972265355833 420.1666666666667" stroke="#323232" stroke-width="2.0" stroke-dasharray="none" fill="none" marker-end="url(#ProcessOnMarker1035)"/></g><g id="ProcessOnG1037"><path id="ProcessOnPath1038" d="M832.3333333333326 572.6666666666666L832.3333333333326 644.6666666666665L943.972265355833 644.6666666666665" stroke="#323232" stroke-width="2.0" stroke-dasharray="none" fill="none" marker-end="url(#ProcessOnMarker1039)"/></g><g id="ProcessOnG1041"><path id="ProcessOnPath1042" d="M1062.958333333333 684.1666666666664L1062.958333333333 710.4166666666662L1062.958333333333 710.4166666666662L1062.958333333333 721.4305986891663" stroke="#323232" stroke-width="2.0" stroke-dasharray="none" fill="none" marker-end="url(#ProcessOnMarker1043)"/></g><g id="ProcessOnG1045" transform="matrix(1.0,0.0,0.0,1.0,924.7083333333328,736.6666666666662)" opacity="1.0"><path id="ProcessOnPath1046" d="M0.0 53.5L138.25 0.0L276.5 53.5L138.25 107.0L0.0 53.5Z" stroke="#323232" stroke-width="2.0" stroke-dasharray="none" opacity="1.0" fill="#ffffff"/><g id="ProcessOnG1047" transform="matrix(1.0,0.0,0.0,1.0,10.0,21.0)"><text id="ProcessOnText1048" fill="#000000" font-size="13" x="127.25" y="13.325" font-family="微软雅黑" font-weight="bold" font-style="normal" text-decoration="none" family="微软雅黑" text-anchor="middle" size="13">计算tf矩阵</text><text id="ProcessOnText1049" fill="#000000" font-size="13" x="127.25" y="29.575" font-family="微软雅黑" font-weight="bold" font-style="normal" text-decoration="none" family="微软雅黑" text-anchor="middle" size="13">vector&lt;map&lt;int,double&gt;&gt;</text><text id="ProcessOnText1050" fill="#000000" font-size="13" x="127.25" y="45.825" font-family="微软雅黑" font-weight="bold" font-style="normal" text-decoration="none" family="微软雅黑" text-anchor="middle" size="13">map-&gt;first：词的id</text><text id="ProcessOnText1051" fill="#000000" font-size="13" x="127.25" y="62.075" font-family="微软雅黑" font-weight="bold" font-style="normal" text-decoration="none" family="微软雅黑" text-anchor="middle" size="13">map-&gt;second：tf</text></g></g><g id="ProcessOnG1052"><path id="ProcessOnPath1053" d="M1166.7083333333335 644.6666666666665L1183.958333333334 644.6666666666665L1183.958333333334 644.6666666666665L1185.9722653558338 644.6666666666665" stroke="#323232" stroke-width="2.0" stroke-dasharray="none" fill="none" marker-end="url(#ProcessOnMarker1054)"/></g><g id="ProcessOnG1056" transform="matrix(1.0,0.0,0.0,1.0,1201.2083333333335,607.1666666666667)" opacity="1.0"><path id="ProcessOnPath1057" d="M0.0 37.5L86.0 0.0L172.0 37.5L86.0 75.0L0.0 37.5Z" stroke="#323232" stroke-width="2.0" stroke-dasharray="none" opacity="1.0" fill="#ffffff"/><g id="ProcessOnG1058" transform="matrix(1.0,0.0,0.0,1.0,10.0,21.25)"><text id="ProcessOnText1059" fill="#000000" font-size="13" x="75.0" y="13.325" font-family="微软雅黑" font-weight="bold" font-style="normal" text-decoration="none" family="微软雅黑" text-anchor="middle" size="13">计算idf</text><text id="ProcessOnText1060" fill="#000000" font-size="13" x="75.0" y="29.575" font-family="微软雅黑" font-weight="bold" font-style="normal" text-decoration="none" family="微软雅黑" text-anchor="middle" size="13">vector&lt;double&gt;</text></g></g><g id="ProcessOnG1061" transform="matrix(1.0,0.0,0.0,1.0,978.5833333333327,491.1666666666669)" opacity="1.0"><path id="ProcessOnPath1062" d="M0.0 46.5L84.375 0.0L168.75 46.5L84.375 93.0L0.0 46.5Z" stroke="#323232" stroke-width="2.0" stroke-dasharray="none" opacity="1.0" fill="#ffffff"/><g id="ProcessOnG1063" transform="matrix(1.0,0.0,0.0,1.0,10.0,30.25)"><text id="ProcessOnText1064" fill="#000000" font-size="13" x="73.375" y="13.325" font-family="微软雅黑" font-weight="bold" font-style="normal" text-decoration="none" family="微软雅黑" text-anchor="middle" size="13">感情记录</text><text id="ProcessOnText1065" fill="#000000" font-size="13" x="73.375" y="29.575" font-family="微软雅黑" font-weight="bold" font-style="normal" text-decoration="none" family="微软雅黑" text-anchor="middle" size="13">vector&lt;int&gt;</text></g></g><g id="ProcessOnG1066"><path id="ProcessOnPath1067" d="M877.3333333333327 537.6666666666666L889.8333333333327 537.6666666666666L889.8333333333327 537.6666666666666L890.8333333333327 537.6666666666666" stroke="#323232" stroke-width="2.0" stroke-dasharray="none" fill="none" marker-end="url(#ProcessOnMarker1068)"/></g><g id="ProcessOnG1070" transform="matrix(1.0,0.0,0.0,1.0,902.3333333333327,513.1666666666667)" opacity="1.0"><path id="ProcessOnPath1071" d="M0.0 0.0L53.875 0.0L53.875 49.0L0.0 49.0Z" stroke="#323232" stroke-width="2.0" stroke-dasharray="none" opacity="1.0" fill="#ffffff"/><g id="ProcessOnG1072" transform="matrix(1.0,0.0,0.0,1.0,10.0,0.125)"><text id="ProcessOnText1073" fill="#000000" font-size="13" x="15.9375" y="13.325" font-family="微软雅黑" font-weight="bold" font-style="normal" text-decoration="none" family="微软雅黑" text-anchor="middle" size="13">感情</text><text id="ProcessOnText1074" fill="#000000" font-size="13" x="15.9375" y="29.575" font-family="微软雅黑" font-weight="bold" font-style="normal" text-decoration="none" family="微软雅黑" text-anchor="middle" size="13">映射</text><text id="ProcessOnText1075" fill="#000000" font-size="13" x="15.9375" y="45.825" font-family="微软雅黑" font-weight="bold" font-style="normal" text-decoration="none" family="微软雅黑" text-anchor="middle" size="13">map</text></g></g><g id="ProcessOnG1076"><path id="ProcessOnPath1077" d="M956.2083333333328 537.6666666666666L967.3958333333328 537.6666666666666L967.3958333333328 537.6666666666666L968.3958333333328 537.6666666666666" stroke="#323232" stroke-width="2.0" stroke-dasharray="none" fill="none" marker-end="url(#ProcessOnMarker1078)"/></g><g id="ProcessOnG1080"><path id="ProcessOnPath1081" d="M616.3333333333334 608.8333333333331L586.3333333333334 608.8333333333331L586.3333333333334 608.3333333333322L624.3333333333334 608.3333333333322L624.3333333333334 537.6666666666667L639.0972653558335 537.6666666666667" stroke="#323232" stroke-width="2.0" stroke-dasharray="none" fill="none" marker-end="url(#ProcessOnMarker1082)"/></g><g id="ProcessOnG1084" transform="matrix(1.0,0.0,0.0,1.0,316.2635269013875,757.7777777777774)" opacity="1.0"><path id="ProcessOnPath1085" d="M0.0 0.0L100.0 0.0L100.0 70.0L0.0 70.0Z" stroke="#323232" stroke-width="2.0" stroke-dasharray="none" opacity="1.0" fill="#ffffff"/><g id="ProcessOnG1086" transform="matrix(1.0,0.0,0.0,1.0,10.0,26.875)"><text id="ProcessOnText1087" fill="#000000" font-size="13" x="39.0" y="13.325" font-family="微软雅黑" font-weight="bold" font-style="normal" text-decoration="none" family="微软雅黑" text-anchor="middle" size="13">不计算idf</text></g></g><g id="ProcessOnG1088" transform="matrix(1.0,0.0,0.0,1.0,246.66666666666666,520.0)" opacity="1.0"><path id="ProcessOnPath1089" d="M16.666666666666668 0.0L83.33333333333333 0.0C105.55555555555556 0.0 105.55555555555556 50.0 83.33333333333333 50.0L16.666666666666668 50.0C-5.555555555555556 50.0 -5.555555555555556 0.0 16.666666666666668 0.0Z" stroke="#323232" stroke-width="2.0" stroke-dasharray="none" opacity="1.0" fill="#ffffff"/><g id="ProcessOnG1090" transform="matrix(1.0,0.0,0.0,1.0,10.0,16.875)"><text id="ProcessOnText1091" fill="#000000" font-size="13" x="39.0" y="13.325" font-family="微软雅黑" font-weight="bold" font-style="normal" text-decoration="none" family="微软雅黑" text-anchor="middle" size="13">训练集</text></g></g><g id="ProcessOnG1092" transform="matrix(1.0,0.0,0.0,1.0,244.44444444444431,638.3333333333335)" opacity="1.0"><path id="ProcessOnPath1093" d="M16.666666666666668 0.0L83.33333333333333 0.0C105.55555555555556 0.0 105.55555555555556 50.0 83.33333333333333 50.0L16.666666666666668 50.0C-5.555555555555556 50.0 -5.555555555555556 0.0 16.666666666666668 0.0Z" stroke="#323232" stroke-width="2.0" stroke-dasharray="none" opacity="1.0" fill="#ffffff"/><g id="ProcessOnG1094" transform="matrix(1.0,0.0,0.0,1.0,10.0,16.875)"><text id="ProcessOnText1095" fill="#000000" font-size="13" x="39.0" y="13.325" font-family="微软雅黑" font-weight="bold" font-style="normal" text-decoration="none" family="微软雅黑" text-anchor="middle" size="13">验证集</text></g></g><g id="ProcessOnG1096"><path id="ProcessOnPath1097" d="M346.66666666666663 545.0L481.5 545.0L481.5 608.8333333333334L601.0972653558335 608.8333333333334" stroke="#323232" stroke-width="2.0" stroke-dasharray="none" fill="none" marker-end="url(#ProcessOnMarker1098)"/></g><g id="ProcessOnG1100"><path id="ProcessOnPath1101" d="M294.44444444444434 688.3333333333335L294.44444444444434 723.0555555555554L366.2635269013876 723.0555555555554L366.2635269013876 742.5417098002775" stroke="#323232" stroke-width="2.0" stroke-dasharray="none" fill="none" marker-end="url(#ProcessOnMarker1102)"/></g><g id="ProcessOnG1104" transform="matrix(1.0,0.0,0.0,1.0,184.9999999999997,757.7777777777774)" opacity="1.0"><path id="ProcessOnPath1105" d="M0.0 0.0L100.0 0.0L100.0 70.0L0.0 70.0Z" stroke="#323232" stroke-width="2.0" stroke-dasharray="none" opacity="1.0" fill="#ffffff"/><g id="ProcessOnG1106" transform="matrix(1.0,0.0,0.0,1.0,10.0,10.625)"><text id="ProcessOnText1107" fill="#000000" font-size="13" x="39.0" y="13.325" font-family="微软雅黑" font-weight="bold" font-style="normal" text-decoration="none" family="微软雅黑" text-anchor="middle" size="13">不在训练集词</text><text id="ProcessOnText1108" fill="#000000" font-size="13" x="39.0" y="29.575" font-family="微软雅黑" font-weight="bold" font-style="normal" text-decoration="none" family="微软雅黑" text-anchor="middle" size="13">单不插入文本</text><text id="ProcessOnText1109" fill="#000000" font-size="13" x="39.0" y="45.825" font-family="微软雅黑" font-weight="bold" font-style="normal" text-decoration="none" family="微软雅黑" text-anchor="middle" size="13">矩阵</text></g></g><g id="ProcessOnG1110"><path id="ProcessOnPath1111" d="M294.44444444444434 688.3333333333335L294.44444444444434 723.0555555555554L234.9999999999997 723.0555555555554L234.9999999999997 742.5417098002775" stroke="#323232" stroke-width="2.0" stroke-dasharray="none" fill="none" marker-end="url(#ProcessOnMarker1112)"/></g><g id="ProcessOnG1114"><path id="ProcessOnPath1115" d="M344.44444444444434 663.3333333333335L483.72222222222223 663.3333333333335L483.72222222222223 608.8333333333334L601.0972653558335 608.8333333333334" stroke="#323232" stroke-width="2.0" stroke-dasharray="none" fill="none" marker-end="url(#ProcessOnMarker1116)"/></g><g id="ProcessOnG1118" transform="matrix(1.0,0.0,0.0,1.0,804.8809523809496,1067.142857142857)" opacity="1.0"><path id="ProcessOnPath1119" d="M0.0 30.625C0.0 -10.208333333333334 197.91666666666742 -10.208333333333334 197.91666666666742 30.625C197.91666666666742 71.45833333333333 0.0 71.45833333333333 0.0 30.625Z" stroke="#323232" stroke-width="2.0" stroke-dasharray="none" opacity="1.0" fill="#ffffff"/><g id="ProcessOnG1120" transform="matrix(1.0,0.0,0.0,1.0,10.0,14.375)"><text id="ProcessOnText1121" fill="#000000" font-size="13" x="87.95833333333371" y="13.325" font-family="微软雅黑" font-weight="bold" font-style="normal" text-decoration="none" family="微软雅黑" text-anchor="middle" size="13">文本矩阵</text><text id="ProcessOnText1122" fill="#000000" font-size="13" x="87.95833333333371" y="29.575" font-family="微软雅黑" font-weight="bold" font-style="normal" text-decoration="none" family="微软雅黑" text-anchor="middle" size="13">vector&lt;vector&lt;int&gt;&gt;</text></g></g><g id="ProcessOnG1123" transform="matrix(1.0,0.0,0.0,1.0,799.8809523809496,1143.392857142857)" opacity="1.0"><path id="ProcessOnPath1124" d="M0.0 30.625C0.0 -10.208333333333334 207.91666666666742 -10.208333333333334 207.91666666666742 30.625C207.91666666666742 71.45833333333333 0.0 71.45833333333333 0.0 30.625Z" stroke="#323232" stroke-width="2.0" stroke-dasharray="none" opacity="1.0" fill="#ffffff"/><g id="ProcessOnG1125" transform="matrix(1.0,0.0,0.0,1.0,10.0,14.375)"><text id="ProcessOnText1126" fill="#000000" font-size="13" x="92.95833333333371" y="13.325" font-family="微软雅黑" font-weight="bold" font-style="normal" text-decoration="none" family="微软雅黑" text-anchor="middle" size="13">tf矩阵</text><text id="ProcessOnText1127" fill="#000000" font-size="13" x="92.95833333333371" y="29.575" font-family="微软雅黑" font-weight="bold" font-style="normal" text-decoration="none" family="微软雅黑" text-anchor="middle" size="13">vector&lt;map&lt;int,double&gt;&gt;</text></g></g><g id="ProcessOnG1128" transform="matrix(1.0,0.0,0.0,1.0,794.8809523809496,989.5386904761904)" opacity="1.0"><path id="ProcessOnPath1129" d="M0.0 30.625C0.0 -10.208333333333334 207.91666666666742 -10.208333333333334 207.91666666666742 30.625C207.91666666666742 71.45833333333333 0.0 71.45833333333333 0.0 30.625Z" stroke="#323232" stroke-width="2.0" stroke-dasharray="none" opacity="1.0" fill="#ffffff"/><g id="ProcessOnG1130" transform="matrix(1.0,0.0,0.0,1.0,10.0,14.375)"><text id="ProcessOnText1131" fill="#000000" font-size="13" x="92.95833333333371" y="13.325" font-family="微软雅黑" font-weight="bold" font-style="normal" text-decoration="none" family="微软雅黑" text-anchor="middle" size="13">感情记录</text><text id="ProcessOnText1132" fill="#000000" font-size="13" x="92.95833333333371" y="29.575" font-family="微软雅黑" font-weight="bold" font-style="normal" text-decoration="none" family="微软雅黑" text-anchor="middle" size="13">vector&lt;int&gt;</text></g></g><g id="ProcessOnG1133" transform="matrix(1.0,0.0,0.0,1.0,801.3678328474218,1228.613945578231)" opacity="1.0"><path id="ProcessOnPath1134" d="M0.0 30.625C0.0 -10.208333333333334 207.91666666666742 -10.208333333333334 207.91666666666742 30.625C207.91666666666742 71.45833333333333 0.0 71.45833333333333 0.0 30.625Z" stroke="#323232" stroke-width="2.0" stroke-dasharray="none" opacity="1.0" fill="#ffffff"/><g id="ProcessOnG1135" transform="matrix(1.0,0.0,0.0,1.0,10.0,14.375)"><text id="ProcessOnText1136" fill="#000000" font-size="13" x="92.95833333333371" y="13.325" font-family="微软雅黑" font-weight="bold" font-style="normal" text-decoration="none" family="微软雅黑" text-anchor="middle" size="13">idf矩阵</text><text id="ProcessOnText1137" fill="#000000" font-size="13" x="92.95833333333371" y="29.575" font-family="微软雅黑" font-weight="bold" font-style="normal" text-decoration="none" family="微软雅黑" text-anchor="middle" size="13">vector&lt;double&gt;</text></g></g><g id="ProcessOnG1138" transform="matrix(1.0,0.0,0.0,1.0,717.440476190475,1343.2823129251703)" opacity="1.0"><path id="ProcessOnPath1139" d="M0.0 0.0L315.7142857142835 0.0L315.7142857142835 249.1071428571429L0.0 249.1071428571429Z" stroke="#323232" stroke-width="2.0" stroke-dasharray="none" opacity="1.0" fill="#ffffff"/><g id="ProcessOnG1140" transform="matrix(1.0,0.0,0.0,1.0,10.0,111.42857142857144)"><text id="ProcessOnText1141" fill="#000000" font-size="21" x="0.0" y="21.525" font-family="微软雅黑" font-weight="bold" font-style="normal" text-decoration="none" family="微软雅黑" text-anchor="start" size="21">验证集</text></g></g><g id="ProcessOnG1142" transform="matrix(1.0,0.0,0.0,1.0,804.8809523809505,1437.2108843537414)" opacity="1.0"><path id="ProcessOnPath1143" d="M0.0 30.625C0.0 -10.208333333333334 197.91666666666742 -10.208333333333334 197.91666666666742 30.625C197.91666666666742 71.45833333333333 0.0 71.45833333333333 0.0 30.625Z" stroke="#323232" stroke-width="2.0" stroke-dasharray="none" opacity="1.0" fill="#ffffff"/><g id="ProcessOnG1144" transform="matrix(1.0,0.0,0.0,1.0,10.0,14.375)"><text id="ProcessOnText1145" fill="#000000" font-size="13" x="87.95833333333371" y="13.325" font-family="微软雅黑" font-weight="bold" font-style="normal" text-decoration="none" family="微软雅黑" text-anchor="middle" size="13">文本矩阵</text><text id="ProcessOnText1146" fill="#000000" font-size="13" x="87.95833333333371" y="29.575" font-family="微软雅黑" font-weight="bold" font-style="normal" text-decoration="none" family="微软雅黑" text-anchor="middle" size="13">vector&lt;vector&lt;int&gt;&gt;</text></g></g><g id="ProcessOnG1147" transform="matrix(1.0,0.0,0.0,1.0,799.8809523809505,1513.460884353742)" opacity="1.0"><path id="ProcessOnPath1148" d="M0.0 30.625C0.0 -10.208333333333334 207.91666666666742 -10.208333333333334 207.91666666666742 30.625C207.91666666666742 71.45833333333333 0.0 71.45833333333333 0.0 30.625Z" stroke="#323232" stroke-width="2.0" stroke-dasharray="none" opacity="1.0" fill="#ffffff"/><g id="ProcessOnG1149" transform="matrix(1.0,0.0,0.0,1.0,10.0,14.375)"><text id="ProcessOnText1150" fill="#000000" font-size="13" x="92.95833333333371" y="13.325" font-family="微软雅黑" font-weight="bold" font-style="normal" text-decoration="none" family="微软雅黑" text-anchor="middle" size="13">tf矩阵</text><text id="ProcessOnText1151" fill="#000000" font-size="13" x="92.95833333333371" y="29.575" font-family="微软雅黑" font-weight="bold" font-style="normal" text-decoration="none" family="微软雅黑" text-anchor="middle" size="13">vector&lt;map&lt;int,double&gt;&gt;</text></g></g><g id="ProcessOnG1152" transform="matrix(1.0,0.0,0.0,1.0,794.8809523809505,1359.606717687075)" opacity="1.0"><path id="ProcessOnPath1153" d="M0.0 30.625C0.0 -10.208333333333334 207.91666666666742 -10.208333333333334 207.91666666666742 30.625C207.91666666666742 71.45833333333333 0.0 71.45833333333333 0.0 30.625Z" stroke="#323232" stroke-width="2.0" stroke-dasharray="none" opacity="1.0" fill="#ffffff"/><g id="ProcessOnG1154" transform="matrix(1.0,0.0,0.0,1.0,10.0,14.375)"><text id="ProcessOnText1155" fill="#000000" font-size="13" x="92.95833333333371" y="13.325" font-family="微软雅黑" font-weight="bold" font-style="normal" text-decoration="none" family="微软雅黑" text-anchor="middle" size="13">感情记录</text><text id="ProcessOnText1156" fill="#000000" font-size="13" x="92.95833333333371" y="29.575" font-family="微软雅黑" font-weight="bold" font-style="normal" text-decoration="none" family="微软雅黑" text-anchor="middle" size="13">vector&lt;int&gt;</text></g></g><g id="ProcessOnG1157" transform="matrix(1.0,0.0,0.0,1.0,1044.3452380952338,1287.7777777777785)" opacity="1.0"><path id="ProcessOnPath1158" d="M0.0 60.833333333333314L127.50000000000034 0.0L255.00000000000068 60.833333333333314L127.50000000000034 121.66666666666663Z" stroke="#323232" stroke-width="2.0" stroke-dasharray="none" opacity="1.0" fill="#ffffff"/><g id="ProcessOnG1159" transform="matrix(1.0,0.0,0.0,1.0,10.0,28.94166666666665)"><text id="ProcessOnText1160" fill="#000000" font-size="13" x="116.50000000000034" y="13.325" font-family="微软雅黑" font-weight="bold" font-style="normal" text-decoration="none" family="微软雅黑" text-anchor="middle" size="13">测算距离</text><text id="ProcessOnText1161" fill="#000000" font-size="13" x="116.50000000000034" y="29.575" font-family="微软雅黑" font-weight="bold" font-style="normal" text-decoration="none" family="微软雅黑" text-anchor="middle" size="13">dis[]</text><text id="ProcessOnText1162" fill="#000000" font-size="13" x="116.50000000000034" y="45.825" font-family="微软雅黑" font-weight="bold" font-style="normal" text-decoration="none" family="微软雅黑" text-anchor="middle" size="13">元素：id，dis，emotion</text><text id="ProcessOnText1163" fill="#000000" font-size="13" x="116.50000000000034" y="62.075" font-family="微软雅黑" font-weight="bold" font-style="normal" text-decoration="none" family="微软雅黑" text-anchor="middle" size="13"></text></g></g><g id="ProcessOnG1164"><path id="ProcessOnPath1165" d="M1007.797619047617 1174.017857142857L1171.8452380952344 1174.017857142857L1171.8452380952344 1272.5417098002788" stroke="#323232" stroke-width="2.0" stroke-dasharray="none" fill="none" marker-end="url(#ProcessOnMarker1166)"/></g><g id="ProcessOnG1168"><path id="ProcessOnPath1169" d="M1007.7976190476179 1544.085884353742L1171.8452380952344 1544.085884353742L1171.8452380952344 1424.6805124219447" stroke="#323232" stroke-width="2.0" stroke-dasharray="none" fill="none" marker-end="url(#ProcessOnMarker1170)"/></g><g id="ProcessOnG1172"><path id="ProcessOnPath1173" d="M1299.3452380952347 1348.6111111111115L1317.6785714285681 1348.6111111111115L1317.6785714285681 1348.6111111111115L1320.775836784402 1348.6111111111115" stroke="#323232" stroke-width="2.0" stroke-dasharray="none" fill="none" marker-end="url(#ProcessOnMarker1174)"/></g><g id="ProcessOnG1176" transform="matrix(1.0,0.0,0.0,1.0,1336.0119047619016,1308.6111111111115)" opacity="1.0"><path id="ProcessOnPath1177" d="M0.0 40.0L60.0 0.0L120.0 40.0L60.0 80.0Z" stroke="#323232" stroke-width="2.0" stroke-dasharray="none" opacity="1.0" fill="#ffffff"/><g id="ProcessOnG1178" transform="matrix(1.0,0.0,0.0,1.0,10.0,32.275)"><text id="ProcessOnText1179" fill="#000000" font-size="13" x="49.0" y="13.325" font-family="微软雅黑" font-weight="bold" font-style="normal" text-decoration="none" family="微软雅黑" text-anchor="middle" size="13">排序</text></g></g><g id="ProcessOnG1180" transform="matrix(1.0,0.0,0.0,1.0,1249.3452380952351,1210.0308641975314)" opacity="1.0"><path id="ProcessOnPath1181" d="M0.0 40.0L60.0 0.0L120.0 40.0L60.0 80.0Z" stroke="#323232" stroke-width="2.0" stroke-dasharray="none" opacity="1.0" fill="#ffffff"/><g id="ProcessOnG1182" transform="matrix(1.0,0.0,0.0,1.0,10.0,24.15)"><text id="ProcessOnText1183" fill="#000000" font-size="13" x="49.0" y="13.325" font-family="微软雅黑" font-weight="bold" font-style="normal" text-decoration="none" family="微软雅黑" text-anchor="middle" size="13">比较函数</text><text id="ProcessOnText1184" fill="#000000" font-size="13" x="49.0" y="29.575" font-family="微软雅黑" font-weight="bold" font-style="normal" text-decoration="none" family="微软雅黑" text-anchor="middle" size="13">cmp</text></g></g><g id="ProcessOnG1185"><path id="ProcessOnPath1186" d="M1171.8452380952342 1287.7777777777785L1171.8452380952342 1250.0308641975314L1234.1091701177354 1250.0308641975314" stroke="#323232" stroke-width="2.0" stroke-dasharray="none" fill="none" marker-end="url(#ProcessOnMarker1187)"/></g><g id="ProcessOnG1189"><path id="ProcessOnPath1190" d="M1369.3452380952351 1250.0308641975314L1396.0119047619016 1250.0308641975314L1396.0119047619016 1293.3750431336118" stroke="#323232" stroke-width="2.0" stroke-dasharray="none" fill="none" marker-end="url(#ProcessOnMarker1191)"/></g><g id="ProcessOnG1193" transform="matrix(1.0,0.0,0.0,1.0,1301.4874420275617,1434.3055555555554)" opacity="1.0"><path id="ProcessOnPath1194" d="M0.0 36.93877551020421L94.67078189300423 0.0L189.34156378600846 36.93877551020421L94.67078189300423 73.87755102040842L0.0 36.93877551020421Z" stroke="#323232" stroke-width="2.0" stroke-dasharray="none" opacity="1.0" fill="#ffffff"/><g id="ProcessOnG1195" transform="matrix(1.0,0.0,0.0,1.0,10.0,12.56377551020421)"><text id="ProcessOnText1196" fill="#000000" font-size="13" x="83.67078189300423" y="13.325" font-family="微软雅黑" font-weight="bold" font-style="normal" text-decoration="none" family="微软雅黑" text-anchor="middle" size="13">取前k个</text><text id="ProcessOnText1197" fill="#000000" font-size="13" x="83.67078189300423" y="29.575" font-family="微软雅黑" font-weight="bold" font-style="normal" text-decoration="none" family="微软雅黑" text-anchor="middle" size="13">记录各个感情的计数</text><text id="ProcessOnText1198" fill="#000000" font-size="13" x="83.67078189300423" y="45.825" font-family="微软雅黑" font-weight="bold" font-style="normal" text-decoration="none" family="微软雅黑" text-anchor="middle" size="13"></text></g></g><g id="ProcessOnG1199"><path id="ProcessOnPath1200" d="M1002.797619047617 1020.1636904761904L1171.8452380952342 1020.1636904761904L1171.8452380952342 1272.5417098002788" stroke="#323232" stroke-width="2.0" stroke-dasharray="none" fill="none" marker-end="url(#ProcessOnMarker1201)"/></g><g id="ProcessOnG1203"><path id="ProcessOnPath1204" d="M1396.0119047619016 1388.6111111111115L1396.0119047619016 1411.4583333333333L1396.1582239205657 1411.4583333333333L1396.1582239205657 1419.0694875780557" stroke="#323232" stroke-width="2.0" stroke-dasharray="none" fill="none" marker-end="url(#ProcessOnMarker1205)"/></g><g id="ProcessOnG1207" transform="matrix(1.0,0.0,0.0,1.0,1295.7385348111445,1559.1666666666667)" opacity="1.0"><path id="ProcessOnPath1208" d="M0.0 32.109053497942625L100.00000000000045 0.0L200.0000000000009 32.109053497942625L100.00000000000045 64.21810699588525L0.0 32.109053497942625Z" stroke="#323232" stroke-width="2.0" stroke-dasharray="none" opacity="1.0" fill="#ffffff"/><g id="ProcessOnG1209" transform="matrix(1.0,0.0,0.0,1.0,10.0,15.859053497942625)"><text id="ProcessOnText1210" fill="#000000" font-size="13" x="89.00000000000045" y="13.325" font-family="微软雅黑" font-weight="bold" font-style="normal" text-decoration="none" family="微软雅黑" text-anchor="middle" size="13">决策规则</text><text id="ProcessOnText1211" fill="#000000" font-size="13" x="89.00000000000045" y="29.575" font-family="微软雅黑" font-weight="bold" font-style="normal" text-decoration="none" family="微软雅黑" text-anchor="middle" size="13">（多个众数）</text></g></g><g id="ProcessOnG1212"><path id="ProcessOnPath1213" d="M1396.1582239205661 1508.1831065759636L1396.1582239205661 1533.6748866213154L1395.738534811145 1533.6748866213154L1395.738534811145 1543.930598689167" stroke="#323232" stroke-width="2.0" stroke-dasharray="none" fill="none" marker-end="url(#ProcessOnMarker1214)"/></g><g id="ProcessOnG1216"><path id="ProcessOnPath1217" d="M1395.738534811145 1623.3847736625519L1395.738534811145 1653.3847736625519L394.16666666666714 1653.3847736625519L394.16666666666714 1156.662627551021L379.4027346441669 1156.662627551021" stroke="#323232" stroke-width="2.0" stroke-dasharray="none" fill="none" marker-end="url(#ProcessOnMarker1218)"/></g><g id="ProcessOnG1220" transform="matrix(1.0,0.0,0.0,1.0,264.1666666666672,1131.6626275510214)" opacity="1.0"><path id="ProcessOnPath1221" d="M16.666666666666668 0.0L83.33333333333333 0.0C105.55555555555556 0.0 105.55555555555556 50.0 83.33333333333333 50.0L16.666666666666668 50.0C-5.555555555555556 50.0 -5.555555555555556 0.0 16.666666666666668 0.0Z" stroke="#323232" stroke-width="2.0" stroke-dasharray="none" opacity="1.0" fill="#ffffff"/><g id="ProcessOnG1222" transform="matrix(1.0,0.0,0.0,1.0,10.0,16.875)"><text id="ProcessOnText1223" fill="#000000" font-size="13" x="39.0" y="13.325" font-family="微软雅黑" font-weight="bold" font-style="normal" text-decoration="none" family="微软雅黑" text-anchor="middle" size="13">输出结果</text></g></g><g id="ProcessOnG1224"><path id="ProcessOnPath1225" d="M1003.1666666666665 847.6666666666667L1003.1666666666665 877.6666666666667L629.4404761904741 877.6666666666667L629.4404761904741 1139.6428571428569L702.2044082129743 1139.6428571428569" stroke="#323232" stroke-width="2.0" stroke-dasharray="none" fill="none" marker-end="url(#ProcessOnMarker1226)"/></g><g id="ProcessOnG1228"><path id="ProcessOnPath1229" d="M1003.1666666666665 847.6666666666667L1003.1666666666665 877.6666666666667L627.440476190475 877.6666666666667L627.440476190475 1467.8358843537417L702.2044082129752 1467.8358843537417" stroke="#323232" stroke-width="2.0" stroke-dasharray="none" fill="none" marker-end="url(#ProcessOnMarker1230)"/></g></g></g></svg>