<svg xmlns="http://www.w3.org/2000/svg" xmlns:xlink="http://www.w3.org/1999/xlink" id="processonSvg1000" viewBox="164.9999999999997 349.99999999999994 1350.7385348111457 1323.3847736625519" width="1350.7385348111457" height="1323.3847736625519"><defs id="ProcessOnDefs1001"><marker id="ProcessOnMarker1021" markerUnits="userSpaceOnUse" orient="auto" markerWidth="16.23606797749979" markerHeight="10.550836550532098" viewBox="-1.0 -1.3763819204711736 16.23606797749979 10.550836550532098" refX="-1.0" refY="3.8990363547948754"><path id="ProcessOnPath1022" d="M12.0 3.8990363547948754L0.0 7.798072709589751V0.0Z" stroke="#323232" stroke-width="2.0" fill="#323232" transform="matrix(1.0,0.0,0.0,1.0,0.0,0.0)"/></marker><marker id="ProcessOnMarker1035" markerUnits="userSpaceOnUse" orient="auto" markerWidth="16.23606797749979" markerHeight="10.550836550532098" viewBox="-1.0 -1.3763819204711736 16.23606797749979 10.550836550532098" refX="-1.0" refY="3.8990363547948754"><path id="ProcessOnPath1036" d="M12.0 3.8990363547948754L0.0 7.798072709589751V0.0Z" stroke="#323232" stroke-width="2.0" fill="#323232" transform="matrix(1.0,0.0,0.0,1.0,0.0,0.0)"/></marker><marker id="ProcessOnMarker1039" markerUnits="userSpaceOnUse" orient="auto" markerWidth="16.23606797749979" markerHeight="10.550836550532098" viewBox="-1.0 -1.3763819204711736 16.23606797749979 10.550836550532098" refX="-1.0" refY="3.8990363547948754"><path id="ProcessOnPath1040" d="M12.0 3.8990363547948754L0.0 7.798072709589751V0.0Z" stroke="#323232" stroke-width="2.0" fill="#323232" transform="matrix(1.0,0.0,0.0,1.0,0.0,0.0)"/></marker><marker id="ProcessOnMarker1043" markerUnits="userSpaceOnUse" orient="auto" markerWidth="16.23606797749979" markerHeight="10.550836550532098" viewBox="-1.0 -1.3763819204711736 16.23606797749979 10.550836550532098" refX="-1.0" refY="3.8990363547948754"><path id="ProcessOnPath1044" d="M12.0 3.8990363547948754L0.0 7.798072709589751V0.0Z" stroke="#323232" stroke-width="2.0" fill="#323232" transform="matrix(1.0,0.0,0.0,1.0,0.0,0.0)"/></marker><marker id="ProcessOnMarker1054" markerUnits="userSpaceOnUse" orient="auto" markerWidth="16.23606797749979" markerHeight="10.550836550532098" viewBox="-1.0 -1.3763819204711736 16.23606797749979 10.550836550532098" refX="-1.0" refY="3.8990363547948754"><path id="ProcessOnPath1055" d="M12.0 3.8990363547948754L0.0 7.798072709589751V0.0Z" stroke="#323232" stroke-width="2.0" fill="#323232" transform="matrix(1.0,0.0,0.0,1.0,0.0,0.0)"/></marker><marker id="ProcessOnMarker1069" markerUnits="userSpaceOnUse" orient="auto" markerWidth="16.23606797749979" markerHeight="10.550836550532098" viewBox="-1.0 -1.3763819204711736 16.23606797749979 10.550836550532098" refX="-1.0" refY="3.8990363547948754"><path id="ProcessOnPath1070" d="M12.0 3.8990363547948754L0.0 7.798072709589751V0.0Z" stroke="#323232" stroke-width="2.0" fill="#323232" transform="matrix(1.0,0.0,0.0,1.0,0.0,0.0)"/></marker><marker id="ProcessOnMarker1079" markerUnits="userSpaceOnUse" orient="auto" markerWidth="16.23606797749979" markerHeight="10.550836550532098" viewBox="-1.0 -1.3763819204711736 16.23606797749979 10.550836550532098" refX="-1.0" refY="3.8990363547948754"><path id="ProcessOnPath1080" d="M12.0 3.8990363547948754L0.0 7.798072709589751V0.0Z" stroke="#323232" stroke-width="2.0" fill="#323232" transform="matrix(1.0,0.0,0.0,1.0,0.0,0.0)"/></marker><marker id="ProcessOnMarker1083" markerUnits="userSpaceOnUse" orient="auto" markerWidth="16.23606797749979" markerHeight="10.550836550532098" viewBox="-1.0 -1.3763819204711736 16.23606797749979 10.550836550532098" refX="-1.0" refY="3.8990363547948754"><path id="ProcessOnPath1084" d="M12.0 3.8990363547948754L0.0 7.798072709589751V0.0Z" stroke="#323232" stroke-width="2.0" fill="#323232" transform="matrix(1.0,0.0,0.0,1.0,0.0,0.0)"/></marker><marker id="ProcessOnMarker1099" markerUnits="userSpaceOnUse" orient="auto" markerWidth="16.23606797749979" markerHeight="10.550836550532098" viewBox="-1.0 -1.3763819204711736 16.23606797749979 10.550836550532098" refX="-1.0" refY="3.8990363547948754"><path id="ProcessOnPath1100" d="M12.0 3.8990363547948754L0.0 7.798072709589751V0.0Z" stroke="#323232" stroke-width="2.0" fill="#323232" transform="matrix(1.0,0.0,0.0,1.0,0.0,0.0)"/></marker><marker id="ProcessOnMarker1103" markerUnits="userSpaceOnUse" orient="auto" markerWidth="16.23606797749979" markerHeight="10.550836550532098" viewBox="-1.0 -1.3763819204711736 16.23606797749979 10.550836550532098" refX="-1.0" refY="3.8990363547948754"><path id="ProcessOnPath1104" d="M12.0 3.8990363547948754L0.0 7.798072709589751V0.0Z" stroke="#323232" stroke-width="2.0" fill="#323232" transform="matrix(1.0,0.0,0.0,1.0,0.0,0.0)"/></marker><marker id="ProcessOnMarker1113" markerUnits="userSpaceOnUse" orient="auto" markerWidth="16.23606797749979" markerHeight="10.550836550532098" viewBox="-1.0 -1.3763819204711736 16.23606797749979 10.550836550532098" refX="-1.0" refY="3.8990363547948754"><path id="ProcessOnPath1114" d="M12.0 3.8990363547948754L0.0 7.798072709589751V0.0Z" stroke="#323232" stroke-width="2.0" fill="#323232" transform="matrix(1.0,0.0,0.0,1.0,0.0,0.0)"/></marker><marker id="ProcessOnMarker1117" markerUnits="userSpaceOnUse" orient="auto" markerWidth="16.23606797749979" markerHeight="10.550836550532098" viewBox="-1.0 -1.3763819204711736 16.23606797749979 10.550836550532098" refX="-1.0" refY="3.8990363547948754"><path id="ProcessOnPath1118" d="M12.0 3.8990363547948754L0.0 7.798072709589751V0.0Z" stroke="#323232" stroke-width="2.0" fill="#323232" transform="matrix(1.0,0.0,0.0,1.0,0.0,0.0)"/></marker><marker id="ProcessOnMarker1167" markerUnits="userSpaceOnUse" orient="auto" markerWidth="16.23606797749979" markerHeight="10.550836550532098" viewBox="-1.0 -1.3763819204711736 16.23606797749979 10.550836550532098" refX="-1.0" refY="3.8990363547948754"><path id="ProcessOnPath1168" d="M12.0 3.8990363547948754L0.0 7.798072709589751V0.0Z" stroke="#323232" stroke-width="2.0" fill="#323232" transform="matrix(1.0,0.0,0.0,1.0,0.0,0.0)"/></marker><marker id="ProcessOnMarker1171" markerUnits="userSpaceOnUse" orient="auto" markerWidth="16.23606797749979" markerHeight="10.550836550532098" viewBox="-1.0 -1.3763819204711736 16.23606797749979 10.550836550532098" refX="-1.0" refY="3.8990363547948754"><path id="ProcessOnPath1172" d="M12.0 3.8990363547948754L0.0 7.798072709589751V0.0Z" stroke="#323232" stroke-width="2.0" fill="#323232" transform="matrix(1.0,0.0,0.0,1.0,0.0,0.0)"/></marker><marker id="ProcessOnMarker1175" markerUnits="userSpaceOnUse" orient="auto" markerWidth="16.23606797749979" markerHeight="10.550836550532098" viewBox="-1.0 -1.3763819204711736 16.23606797749979 10.550836550532098" refX="-1.0" refY="3.8990363547948754"><path id="ProcessOnPath1176" d="M12.0 3.8990363547948754L0.0 7.798072709589751V0.0Z" stroke="#323232" stroke-width="2.0" fill="#323232" transform="matrix(1.0,0.0,0.0,1.0,0.0,0.0)"/></marker><marker id="ProcessOnMarker1188" markerUnits="userSpaceOnUse" orient="auto" markerWidth="16.23606797749979" markerHeight="10.550836550532098" viewBox="-1.0 -1.3763819204711736 16.23606797749979 10.550836550532098" refX="-1.0" refY="3.8990363547948754"><path id="ProcessOnPath1189" d="M12.0 3.8990363547948754L0.0 7.798072709589751V0.0Z" stroke="#323232" stroke-width="2.0" fill="#323232" transform="matrix(1.0,0.0,0.0,1.0,0.0,0.0)"/></marker><marker id="ProcessOnMarker1192" markerUnits="userSpaceOnUse" orient="auto" markerWidth="16.23606797749979" markerHeight="10.550836550532098" viewBox="-1.0 -1.3763819204711736 16.23606797749979 10.550836550532098" refX="-1.0" refY="3.8990363547948754"><path id="ProcessOnPath1193" d="M12.0 3.8990363547948754L0.0 7.798072709589751V0.0Z" stroke="#323232" stroke-width="2.0" fill="#323232" transform="matrix(1.0,0.0,0.0,1.0,0.0,0.0)"/></marker><marker id="ProcessOnMarker1202" markerUnits="userSpaceOnUse" orient="auto" markerWidth="16.23606797749979" markerHeight="10.550836550532098" viewBox="-1.0 -1.3763819204711736 16.23606797749979 10.550836550532098" refX="-1.0" refY="3.8990363547948754"><path id="ProcessOnPath1203" d="M12.0 3.8990363547948754L0.0 7.798072709589751V0.0Z" stroke="#323232" stroke-width="2.0" fill="#323232" transform="matrix(1.0,0.0,0.0,1.0,0.0,0.0)"/></marker><marker id="ProcessOnMarker1206" markerUnits="userSpaceOnUse" orient="auto" markerWidth="16.23606797749979" markerHeight="10.550836550532098" viewBox="-1.0 -1.3763819204711736 16.23606797749979 10.550836550532098" refX="-1.0" refY="3.8990363547948754"><path id="ProcessOnPath1207" d="M12.0 3.8990363547948754L0.0 7.798072709589751V0.0Z" stroke="#323232" stroke-width="2.0" fill="#323232" transform="matrix(1.0,0.0,0.0,1.0,0.0,0.0)"/></marker><marker id="ProcessOnMarker1214" markerUnits="userSpaceOnUse" orient="auto" markerWidth="16.23606797749979" markerHeight="10.550836550532098" viewBox="-1.0 -1.3763819204711736 16.23606797749979 10.550836550532098" refX="-1.0" refY="3.8990363547948754"><path id="ProcessOnPath1215" d="M12.0 3.8990363547948754L0.0 7.798072709589751V0.0Z" stroke="#323232" stroke-width="2.0" fill="#323232" transform="matrix(1.0,0.0,0.0,1.0,0.0,0.0)"/></marker><marker id="ProcessOnMarker1218" markerUnits="userSpaceOnUse" orient="auto" markerWidth="16.23606797749979" markerHeight="10.550836550532098" viewBox="-1.0 -1.3763819204711736 16.23606797749979 10.550836550532098" refX="-1.0" refY="3.8990363547948754"><path id="ProcessOnPath1219" d="M12.0 3.8990363547948754L0.0 7.798072709589751V0.0Z" stroke="#323232" stroke-width="2.0" fill="#323232" transform="matrix(1.0,0.0,0.0,1.0,0.0,0.0)"/></marker><marker id="ProcessOnMarker1226" markerUnits="userSpaceOnUse" orient="auto" markerWidth="16.23606797749979" markerHeight="10.550836550532098" viewBox="-1.0 -1.3763819204711736 16.23606797749979 10.550836550532098" refX="-1.0" refY="3.8990363547948754"><path id="ProcessOnPath1227" d="M12.0 3.8990363547948754L0.0 7.798072709589751V0.0Z" stroke="#323232" stroke-width="2.0" fill="#323232" transform="matrix(1.0,0.0,0.0,1.0,0.0,0.0)"/></marker><marker id="ProcessOnMarker1230" markerUnits="userSpaceOnUse" orient="auto" markerWidth="16.23606797749979" markerHeight="10.550836550532098" viewBox="-1.0 -1.3763819204711736 16.23606797749979 10.550836550532098" refX="-1.0" refY="3.8990363547948754"><path id="ProcessOnPath1231" d="M12.0 3.8990363547948754L0.0 7.798072709589751V0.0Z" stroke="#323232" stroke-width="2.0" fill="#323232" transform="matrix(1.0,0.0,0.0,1.0,0.0,0.0)"/></marker><marker id="ProcessOnMarker1239" markerUnits="userSpaceOnUse" orient="auto" markerWidth="16.23606797749979" markerHeight="10.550836550532098" viewBox="-1.0 -1.3763819204711736 16.23606797749979 10.550836550532098" refX="-1.0" refY="3.8990363547948754"><path id="ProcessOnPath1240" d="M12.0 3.8990363547948754L0.0 7.798072709589751V0.0Z" stroke="#323232" stroke-width="2.0" fill="#323232" transform="matrix(1.0,0.0,0.0,1.0,0.0,0.0)"/></marker></defs><g id="ProcessOnG1002"><path id="ProcessOnPath1003" d="M164.9999999999997 349.99999999999994H1515.7385348111454V1673.3847736625519H164.99999999999977V350.0Z" fill="none"/><g id="ProcessOnG1004"><g id="ProcessOnG1005" transform="matrix(1.0,0.0,0.0,1.0,717.4404761904741,973.2142857142856)" opacity="1.0"><path id="ProcessOnPath1006" d="M0.0 0.0L315.71428571428555 0.0L315.71428571428555 332.8571428571428L0.0 332.8571428571428Z" stroke="#323232" stroke-width="2.0" stroke-dasharray="none" opacity="1.0" fill="#ffffff"/><g id="ProcessOnG1007" transform="matrix(1.0,0.0,0.0,1.0,10.0,153.3035714285714)"><text id="ProcessOnText1008" fill="#000000" font-size="21" x="0.0" y="21.525" font-family="微软雅黑" font-weight="bold" font-style="normal" text-decoration="none" family="微软雅黑" text-anchor="start" size="21">训练集</text></g></g><g id="ProcessOnG1009" transform="matrix(1.0,0.0,0.0,1.0,616.3333333333334,369.99999999999994)" opacity="1.0"><path id="ProcessOnPath1010" d="M0.0 0.0L773.6666666666664 0.0L773.6666666666664 477.6666666666668L0.0 477.6666666666668Z" stroke="#323232" stroke-width="2.0" stroke-dasharray="none" opacity="1.0" fill="#ffffff"/></g><g id="ProcessOnG1011" transform="matrix(1.0,0.0,0.0,1.0,787.3333333333326,502.6666666666668)" opacity="1.0"><path id="ProcessOnPath1012" d="M0.0 35.0L45.0 0.0L90.0 35.0L45.0 70.0L0.0 35.0Z" stroke="#323232" stroke-width="2.0" stroke-dasharray="none" opacity="1.0" fill="#ffffff"/><g id="ProcessOnG1013" transform="matrix(1.0,0.0,0.0,1.0,10.0,26.875)"><text id="ProcessOnText1014" fill="#000000" font-size="13" x="34.0" y="13.325" font-family="微软雅黑" font-weight="bold" font-style="normal" text-decoration="none" family="微软雅黑" text-anchor="middle" size="13">切割</text></g></g><g id="ProcessOnG1015" transform="matrix(1.0,0.0,0.0,1.0,654.3333333333334,512.6666666666667)" opacity="1.0"><path id="ProcessOnPath1016" d="M16.666666666666668 0.0L83.33333333333333 0.0C105.55555555555556 0.0 105.55555555555556 50.0 83.33333333333333 50.0L16.666666666666668 50.0C-5.555555555555556 50.0 -5.555555555555556 0.0 16.666666666666668 0.0Z" stroke="#323232" stroke-width="2.0" stroke-dasharray="none" opacity="1.0" fill="#ffffff"/><g id="ProcessOnG1017" transform="matrix(1.0,0.0,0.0,1.0,10.0,16.875)"><text id="ProcessOnText1018" fill="#000000" font-size="13" x="39.0" y="13.325" font-family="微软雅黑" font-weight="bold" font-style="normal" text-decoration="none" family="微软雅黑" text-anchor="middle" size="13">文件</text></g></g><g id="ProcessOnG1019"><path id="ProcessOnPath1020" d="M754.3333333333329 537.6666666666666L770.8333333333328 537.6666666666666L770.8333333333328 537.6666666666666L772.0972653558327 537.6666666666666" stroke="#323232" stroke-width="2.0" stroke-dasharray="none" fill="none" marker-end="url(#ProcessOnMarker1021)"/></g><g id="ProcessOnG1023" transform="matrix(1.0,0.0,0.0,1.0,956.2083333333328,379.6666666666667)" opacity="1.0"><path id="ProcessOnPath1024" d="M0.0 40.5L107.25 0.0L214.5 40.5L107.25 81.0L0.0 40.5Z" stroke="#323232" stroke-width="2.0" stroke-dasharray="none" opacity="1.0" fill="#ffffff"/><g id="ProcessOnG1025" transform="matrix(1.0,0.0,0.0,1.0,10.0,25.5)"><text id="ProcessOnText1026" fill="#000000" font-size="12" x="96.25" y="12.3" font-family="微软雅黑" font-weight="bold" font-style="normal" text-decoration="none" family="微软雅黑" text-anchor="middle" size="12">加到词单(不重复)</text><text id="ProcessOnText1027" fill="#000000" font-size="12" x="96.25" y="27.3" font-family="微软雅黑" font-weight="bold" font-style="normal" text-decoration="none" family="微软雅黑" text-anchor="middle" size="12">map&lt;string,int&gt;</text></g></g><g id="ProcessOnG1028" transform="matrix(1.0,0.0,0.0,1.0,959.2083333333328,605.1666666666667)" opacity="1.0"><path id="ProcessOnPath1029" d="M0.0 39.5L103.75 0.0L207.5 39.5L103.75 79.0L0.0 39.5Z" stroke="#323232" stroke-width="2.0" stroke-dasharray="none" opacity="1.0" fill="#ffffff"/><g id="ProcessOnG1030" transform="matrix(1.0,0.0,0.0,1.0,10.0,23.25)"><text id="ProcessOnText1031" fill="#000000" font-size="13" x="92.75" y="13.325" font-family="微软雅黑" font-weight="bold" font-style="normal" text-decoration="none" family="微软雅黑" text-anchor="middle" size="13">加到文本矩阵</text><text id="ProcessOnText1032" fill="#000000" font-size="13" x="92.75" y="29.575" font-family="微软雅黑" font-weight="bold" font-style="normal" text-decoration="none" family="微软雅黑" text-anchor="middle" size="13">vector&lt;vector&lt;int&gt;&gt;</text></g></g><g id="ProcessOnG1033"><path id="ProcessOnPath1034" d="M832.3333333333326 502.6666666666668L832.3333333333326 420.1666666666667L940.972265355833 420.1666666666667" stroke="#323232" stroke-width="2.0" stroke-dasharray="none" fill="none" marker-end="url(#ProcessOnMarker1035)"/></g><g id="ProcessOnG1037"><path id="ProcessOnPath1038" d="M832.3333333333326 572.6666666666666L832.3333333333326 644.6666666666665L943.972265355833 644.6666666666665" stroke="#323232" stroke-width="2.0" stroke-dasharray="none" fill="none" marker-end="url(#ProcessOnMarker1039)"/></g><g id="ProcessOnG1041"><path id="ProcessOnPath1042" d="M1062.958333333333 684.1666666666664L1062.958333333333 710.4166666666662L1062.958333333333 710.4166666666662L1062.958333333333 721.4305986891663" stroke="#323232" stroke-width="2.0" stroke-dasharray="none" fill="none" marker-end="url(#ProcessOnMarker1043)"/></g><g id="ProcessOnG1045" transform="matrix(1.0,0.0,0.0,1.0,924.7083333333328,736.6666666666662)" opacity="1.0"><path id="ProcessOnPath1046" d="M0.0 53.5L138.25 0.0L276.5 53.5L138.25 107.0L0.0 53.5Z" stroke="#323232" stroke-width="2.0" stroke-dasharray="none" opacity="1.0" fill="#ffffff"/><g id="ProcessOnG1047" transform="matrix(1.0,0.0,0.0,1.0,10.0,21.0)"><text id="ProcessOnText1048" fill="#000000" font-size="13" x="127.25" y="13.325" font-family="微软雅黑" font-weight="bold" font-style="normal" text-decoration="none" family="微软雅黑" text-anchor="middle" size="13">计算tf矩阵</text><text id="ProcessOnText1049" fill="#000000" font-size="13" x="127.25" y="29.575" font-family="微软雅黑" font-weight="bold" font-style="normal" text-decoration="none" family="微软雅黑" text-anchor="middle" size="13">vector&lt;map&lt;int,double&gt;&gt;</text><text id="ProcessOnText1050" fill="#000000" font-size="13" x="127.25" y="45.825" font-family="微软雅黑" font-weight="bold" font-style="normal" text-decoration="none" family="微软雅黑" text-anchor="middle" size="13">map-&gt;first：词的id</text><text id="ProcessOnText1051" fill="#000000" font-size="13" x="127.25" y="62.075" font-family="微软雅黑" font-weight="bold" font-style="normal" text-decoration="none" family="微软雅黑" text-anchor="middle" size="13">map-&gt;second：tf</text></g></g><g id="ProcessOnG1052"><path id="ProcessOnPath1053" d="M1166.7083333333335 644.6666666666665L1183.958333333334 644.6666666666665L1183.958333333334 644.6666666666665L1185.9722653558338 644.6666666666665" stroke="#323232" stroke-width="2.0" stroke-dasharray="none" fill="none" marker-end="url(#ProcessOnMarker1054)"/></g><g id="ProcessOnG1056" transform="matrix(1.0,0.0,0.0,1.0,1201.2083333333335,607.1666666666667)" opacity="1.0"><path id="ProcessOnPath1057" d="M0.0 37.5L86.0 0.0L172.0 37.5L86.0 75.0L0.0 37.5Z" stroke="#323232" stroke-width="2.0" stroke-dasharray="none" opacity="1.0" fill="#ffffff"/><g id="ProcessOnG1058" transform="matrix(1.0,0.0,0.0,1.0,10.0,21.25)"><text id="ProcessOnText1059" fill="#000000" font-size="13" x="75.0" y="13.325" font-family="微软雅黑" font-weight="bold" font-style="normal" text-decoration="none" family="微软雅黑" text-anchor="middle" size="13">计算idf</text><text id="ProcessOnText1060" fill="#000000" font-size="13" x="75.0" y="29.575" font-family="微软雅黑" font-weight="bold" font-style="normal" text-decoration="none" family="微软雅黑" text-anchor="middle" size="13">vector&lt;double&gt;</text></g></g><g id="ProcessOnG1061" transform="matrix(1.0,0.0,0.0,1.0,978.5833333333327,491.1666666666669)" opacity="1.0"><path id="ProcessOnPath1062" d="M0.0 46.5L84.375 0.0L168.75 46.5L84.375 93.0L0.0 46.5Z" stroke="#323232" stroke-width="2.0" stroke-dasharray="none" opacity="1.0" fill="#ffffff"/><g id="ProcessOnG1063" transform="matrix(1.0,0.0,0.0,1.0,10.0,22.125)"><text id="ProcessOnText1064" fill="#000000" font-size="13" x="73.375" y="13.325" font-family="微软雅黑" font-weight="bold" font-style="normal" text-decoration="none" family="微软雅黑" text-anchor="middle" size="13">感情概率记录</text><text id="ProcessOnText1065" fill="#000000" font-size="13" x="73.375" y="29.575" font-family="微软雅黑" font-weight="bold" font-style="normal" text-decoration="none" family="微软雅黑" text-anchor="middle" size="13">vector&lt;double&gt;[6]</text><text id="ProcessOnText1066" fill="#000000" font-size="13" x="73.375" y="45.825" font-family="微软雅黑" font-weight="bold" font-style="normal" text-decoration="none" family="微软雅黑" text-anchor="middle" size="13"></text></g></g><g id="ProcessOnG1067"><path id="ProcessOnPath1068" d="M877.3333333333327 537.6666666666666L889.8333333333327 537.6666666666666L889.8333333333327 537.6666666666666L890.8333333333327 537.6666666666666" stroke="#323232" stroke-width="2.0" stroke-dasharray="none" fill="none" marker-end="url(#ProcessOnMarker1069)"/></g><g id="ProcessOnG1071" transform="matrix(1.0,0.0,0.0,1.0,902.3333333333327,513.1666666666667)" opacity="1.0"><path id="ProcessOnPath1072" d="M0.0 0.0L53.875 0.0L53.875 49.0L0.0 49.0Z" stroke="#323232" stroke-width="2.0" stroke-dasharray="none" opacity="1.0" fill="#ffffff"/><g id="ProcessOnG1073" transform="matrix(1.0,0.0,0.0,1.0,10.0,0.125)"><text id="ProcessOnText1074" fill="#000000" font-size="13" x="15.9375" y="13.325" font-family="微软雅黑" font-weight="bold" font-style="normal" text-decoration="none" family="微软雅黑" text-anchor="middle" size="13">感情</text><text id="ProcessOnText1075" fill="#000000" font-size="13" x="15.9375" y="29.575" font-family="微软雅黑" font-weight="bold" font-style="normal" text-decoration="none" family="微软雅黑" text-anchor="middle" size="13">映射</text><text id="ProcessOnText1076" fill="#000000" font-size="13" x="15.9375" y="45.825" font-family="微软雅黑" font-weight="bold" font-style="normal" text-decoration="none" family="微软雅黑" text-anchor="middle" size="13">map</text></g></g><g id="ProcessOnG1077"><path id="ProcessOnPath1078" d="M956.2083333333328 537.6666666666666L967.3958333333328 537.6666666666666L967.3958333333328 537.6666666666666L968.3958333333328 537.6666666666666" stroke="#323232" stroke-width="2.0" stroke-dasharray="none" fill="none" marker-end="url(#ProcessOnMarker1079)"/></g><g id="ProcessOnG1081"><path id="ProcessOnPath1082" d="M616.3333333333334 608.8333333333331L586.3333333333334 608.8333333333331L586.3333333333334 608.3333333333322L624.3333333333334 608.3333333333322L624.3333333333334 537.6666666666667L639.0972653558335 537.6666666666667" stroke="#323232" stroke-width="2.0" stroke-dasharray="none" fill="none" marker-end="url(#ProcessOnMarker1083)"/></g><g id="ProcessOnG1085" transform="matrix(1.0,0.0,0.0,1.0,316.2635269013875,757.7777777777774)" opacity="1.0"><path id="ProcessOnPath1086" d="M0.0 0.0L100.0 0.0L100.0 70.0L0.0 70.0Z" stroke="#323232" stroke-width="2.0" stroke-dasharray="none" opacity="1.0" fill="#ffffff"/><g id="ProcessOnG1087" transform="matrix(1.0,0.0,0.0,1.0,10.0,26.875)"><text id="ProcessOnText1088" fill="#000000" font-size="13" x="39.0" y="13.325" font-family="微软雅黑" font-weight="bold" font-style="normal" text-decoration="none" family="微软雅黑" text-anchor="middle" size="13">不计算idf</text></g></g><g id="ProcessOnG1089" transform="matrix(1.0,0.0,0.0,1.0,246.66666666666666,520.0)" opacity="1.0"><path id="ProcessOnPath1090" d="M16.666666666666668 0.0L83.33333333333333 0.0C105.55555555555556 0.0 105.55555555555556 50.0 83.33333333333333 50.0L16.666666666666668 50.0C-5.555555555555556 50.0 -5.555555555555556 0.0 16.666666666666668 0.0Z" stroke="#323232" stroke-width="2.0" stroke-dasharray="none" opacity="1.0" fill="#ffffff"/><g id="ProcessOnG1091" transform="matrix(1.0,0.0,0.0,1.0,10.0,16.875)"><text id="ProcessOnText1092" fill="#000000" font-size="13" x="39.0" y="13.325" font-family="微软雅黑" font-weight="bold" font-style="normal" text-decoration="none" family="微软雅黑" text-anchor="middle" size="13">训练集</text></g></g><g id="ProcessOnG1093" transform="matrix(1.0,0.0,0.0,1.0,244.44444444444431,638.3333333333335)" opacity="1.0"><path id="ProcessOnPath1094" d="M16.666666666666668 0.0L83.33333333333333 0.0C105.55555555555556 0.0 105.55555555555556 50.0 83.33333333333333 50.0L16.666666666666668 50.0C-5.555555555555556 50.0 -5.555555555555556 0.0 16.666666666666668 0.0Z" stroke="#323232" stroke-width="2.0" stroke-dasharray="none" opacity="1.0" fill="#ffffff"/><g id="ProcessOnG1095" transform="matrix(1.0,0.0,0.0,1.0,10.0,16.875)"><text id="ProcessOnText1096" fill="#000000" font-size="13" x="39.0" y="13.325" font-family="微软雅黑" font-weight="bold" font-style="normal" text-decoration="none" family="微软雅黑" text-anchor="middle" size="13">验证集</text></g></g><g id="ProcessOnG1097"><path id="ProcessOnPath1098" d="M346.66666666666663 545.0L481.5 545.0L481.5 608.8333333333334L601.0972653558335 608.8333333333334" stroke="#323232" stroke-width="2.0" stroke-dasharray="none" fill="none" marker-end="url(#ProcessOnMarker1099)"/></g><g id="ProcessOnG1101"><path id="ProcessOnPath1102" d="M294.44444444444434 688.3333333333335L294.44444444444434 723.0555555555554L366.2635269013876 723.0555555555554L366.2635269013876 742.5417098002775" stroke="#323232" stroke-width="2.0" stroke-dasharray="none" fill="none" marker-end="url(#ProcessOnMarker1103)"/></g><g id="ProcessOnG1105" transform="matrix(1.0,0.0,0.0,1.0,184.9999999999997,757.7777777777774)" opacity="1.0"><path id="ProcessOnPath1106" d="M0.0 0.0L100.0 0.0L100.0 70.0L0.0 70.0Z" stroke="#323232" stroke-width="2.0" stroke-dasharray="none" opacity="1.0" fill="#ffffff"/><g id="ProcessOnG1107" transform="matrix(1.0,0.0,0.0,1.0,10.0,10.625)"><text id="ProcessOnText1108" fill="#000000" font-size="13" x="39.0" y="13.325" font-family="微软雅黑" font-weight="bold" font-style="normal" text-decoration="none" family="微软雅黑" text-anchor="middle" size="13">不在训练集词</text><text id="ProcessOnText1109" fill="#000000" font-size="13" x="39.0" y="29.575" font-family="微软雅黑" font-weight="bold" font-style="normal" text-decoration="none" family="微软雅黑" text-anchor="middle" size="13">单不插入文本</text><text id="ProcessOnText1110" fill="#000000" font-size="13" x="39.0" y="45.825" font-family="微软雅黑" font-weight="bold" font-style="normal" text-decoration="none" family="微软雅黑" text-anchor="middle" size="13">矩阵</text></g></g><g id="ProcessOnG1111"><path id="ProcessOnPath1112" d="M294.44444444444434 688.3333333333335L294.44444444444434 723.0555555555554L234.9999999999997 723.0555555555554L234.9999999999997 742.5417098002775" stroke="#323232" stroke-width="2.0" stroke-dasharray="none" fill="none" marker-end="url(#ProcessOnMarker1113)"/></g><g id="ProcessOnG1115"><path id="ProcessOnPath1116" d="M344.44444444444434 663.3333333333335L483.72222222222223 663.3333333333335L483.72222222222223 608.8333333333334L601.0972653558335 608.8333333333334" stroke="#323232" stroke-width="2.0" stroke-dasharray="none" fill="none" marker-end="url(#ProcessOnMarker1117)"/></g><g id="ProcessOnG1119" transform="matrix(1.0,0.0,0.0,1.0,804.8809523809496,1067.142857142857)" opacity="1.0"><path id="ProcessOnPath1120" d="M0.0 30.625C0.0 -10.208333333333334 197.91666666666742 -10.208333333333334 197.91666666666742 30.625C197.91666666666742 71.45833333333333 0.0 71.45833333333333 0.0 30.625Z" stroke="#323232" stroke-width="2.0" stroke-dasharray="none" opacity="1.0" fill="#ffffff"/><g id="ProcessOnG1121" transform="matrix(1.0,0.0,0.0,1.0,10.0,14.375)"><text id="ProcessOnText1122" fill="#000000" font-size="13" x="87.95833333333371" y="13.325" font-family="微软雅黑" font-weight="bold" font-style="normal" text-decoration="none" family="微软雅黑" text-anchor="middle" size="13">文本矩阵</text><text id="ProcessOnText1123" fill="#000000" font-size="13" x="87.95833333333371" y="29.575" font-family="微软雅黑" font-weight="bold" font-style="normal" text-decoration="none" family="微软雅黑" text-anchor="middle" size="13">vector&lt;vector&lt;int&gt;&gt;</text></g></g><g id="ProcessOnG1124" transform="matrix(1.0,0.0,0.0,1.0,799.8809523809496,1143.392857142857)" opacity="1.0"><path id="ProcessOnPath1125" d="M0.0 30.625C0.0 -10.208333333333334 207.91666666666742 -10.208333333333334 207.91666666666742 30.625C207.91666666666742 71.45833333333333 0.0 71.45833333333333 0.0 30.625Z" stroke="#323232" stroke-width="2.0" stroke-dasharray="none" opacity="1.0" fill="#ffffff"/><g id="ProcessOnG1126" transform="matrix(1.0,0.0,0.0,1.0,10.0,14.375)"><text id="ProcessOnText1127" fill="#000000" font-size="13" x="92.95833333333371" y="13.325" font-family="微软雅黑" font-weight="bold" font-style="normal" text-decoration="none" family="微软雅黑" text-anchor="middle" size="13">tf矩阵</text><text id="ProcessOnText1128" fill="#000000" font-size="13" x="92.95833333333371" y="29.575" font-family="微软雅黑" font-weight="bold" font-style="normal" text-decoration="none" family="微软雅黑" text-anchor="middle" size="13">vector&lt;map&lt;int,double&gt;&gt;</text></g></g><g id="ProcessOnG1129" transform="matrix(1.0,0.0,0.0,1.0,794.8809523809496,989.5386904761904)" opacity="1.0"><path id="ProcessOnPath1130" d="M0.0 30.625C0.0 -10.208333333333334 207.91666666666742 -10.208333333333334 207.91666666666742 30.625C207.91666666666742 71.45833333333333 0.0 71.45833333333333 0.0 30.625Z" stroke="#323232" stroke-width="2.0" stroke-dasharray="none" opacity="1.0" fill="#ffffff"/><g id="ProcessOnG1131" transform="matrix(1.0,0.0,0.0,1.0,10.0,14.375)"><text id="ProcessOnText1132" fill="#000000" font-size="13" x="92.95833333333371" y="13.325" font-family="微软雅黑" font-weight="bold" font-style="normal" text-decoration="none" family="微软雅黑" text-anchor="middle" size="13">感情概率记录</text><text id="ProcessOnText1133" fill="#000000" font-size="13" x="92.95833333333371" y="29.575" font-family="微软雅黑" font-weight="bold" font-style="normal" text-decoration="none" family="微软雅黑" text-anchor="middle" size="13">vector&lt;double&gt;[6]</text></g></g><g id="ProcessOnG1134" transform="matrix(1.0,0.0,0.0,1.0,801.3678328474218,1228.613945578231)" opacity="1.0"><path id="ProcessOnPath1135" d="M0.0 30.625C0.0 -10.208333333333334 207.91666666666742 -10.208333333333334 207.91666666666742 30.625C207.91666666666742 71.45833333333333 0.0 71.45833333333333 0.0 30.625Z" stroke="#323232" stroke-width="2.0" stroke-dasharray="none" opacity="1.0" fill="#ffffff"/><g id="ProcessOnG1136" transform="matrix(1.0,0.0,0.0,1.0,10.0,14.375)"><text id="ProcessOnText1137" fill="#000000" font-size="13" x="92.95833333333371" y="13.325" font-family="微软雅黑" font-weight="bold" font-style="normal" text-decoration="none" family="微软雅黑" text-anchor="middle" size="13">idf矩阵</text><text id="ProcessOnText1138" fill="#000000" font-size="13" x="92.95833333333371" y="29.575" font-family="微软雅黑" font-weight="bold" font-style="normal" text-decoration="none" family="微软雅黑" text-anchor="middle" size="13">vector&lt;double&gt;</text></g></g><g id="ProcessOnG1139" transform="matrix(1.0,0.0,0.0,1.0,717.440476190475,1343.2823129251703)" opacity="1.0"><path id="ProcessOnPath1140" d="M0.0 0.0L315.7142857142835 0.0L315.7142857142835 249.1071428571429L0.0 249.1071428571429Z" stroke="#323232" stroke-width="2.0" stroke-dasharray="none" opacity="1.0" fill="#ffffff"/><g id="ProcessOnG1141" transform="matrix(1.0,0.0,0.0,1.0,10.0,111.42857142857144)"><text id="ProcessOnText1142" fill="#000000" font-size="21" x="0.0" y="21.525" font-family="微软雅黑" font-weight="bold" font-style="normal" text-decoration="none" family="微软雅黑" text-anchor="start" size="21">验证集</text></g></g><g id="ProcessOnG1143" transform="matrix(1.0,0.0,0.0,1.0,804.8809523809505,1437.2108843537414)" opacity="1.0"><path id="ProcessOnPath1144" d="M0.0 30.625C0.0 -10.208333333333334 197.91666666666742 -10.208333333333334 197.91666666666742 30.625C197.91666666666742 71.45833333333333 0.0 71.45833333333333 0.0 30.625Z" stroke="#323232" stroke-width="2.0" stroke-dasharray="none" opacity="1.0" fill="#ffffff"/><g id="ProcessOnG1145" transform="matrix(1.0,0.0,0.0,1.0,10.0,14.375)"><text id="ProcessOnText1146" fill="#000000" font-size="13" x="87.95833333333371" y="13.325" font-family="微软雅黑" font-weight="bold" font-style="normal" text-decoration="none" family="微软雅黑" text-anchor="middle" size="13">文本矩阵</text><text id="ProcessOnText1147" fill="#000000" font-size="13" x="87.95833333333371" y="29.575" font-family="微软雅黑" font-weight="bold" font-style="normal" text-decoration="none" family="微软雅黑" text-anchor="middle" size="13">vector&lt;vector&lt;int&gt;&gt;</text></g></g><g id="ProcessOnG1148" transform="matrix(1.0,0.0,0.0,1.0,799.8809523809505,1513.460884353742)" opacity="1.0"><path id="ProcessOnPath1149" d="M0.0 30.625C0.0 -10.208333333333334 207.91666666666742 -10.208333333333334 207.91666666666742 30.625C207.91666666666742 71.45833333333333 0.0 71.45833333333333 0.0 30.625Z" stroke="#323232" stroke-width="2.0" stroke-dasharray="none" opacity="1.0" fill="#ffffff"/><g id="ProcessOnG1150" transform="matrix(1.0,0.0,0.0,1.0,10.0,14.375)"><text id="ProcessOnText1151" fill="#000000" font-size="13" x="92.95833333333371" y="13.325" font-family="微软雅黑" font-weight="bold" font-style="normal" text-decoration="none" family="微软雅黑" text-anchor="middle" size="13">tf矩阵</text><text id="ProcessOnText1152" fill="#000000" font-size="13" x="92.95833333333371" y="29.575" font-family="微软雅黑" font-weight="bold" font-style="normal" text-decoration="none" family="微软雅黑" text-anchor="middle" size="13">vector&lt;map&lt;int,double&gt;&gt;</text></g></g><g id="ProcessOnG1153" transform="matrix(1.0,0.0,0.0,1.0,794.8809523809505,1359.606717687075)" opacity="1.0"><path id="ProcessOnPath1154" d="M0.0 30.625C0.0 -10.208333333333334 207.91666666666742 -10.208333333333334 207.91666666666742 30.625C207.91666666666742 71.45833333333333 0.0 71.45833333333333 0.0 30.625Z" stroke="#323232" stroke-width="2.0" stroke-dasharray="none" opacity="1.0" fill="#ffffff"/><g id="ProcessOnG1155" transform="matrix(1.0,0.0,0.0,1.0,10.0,14.375)"><text id="ProcessOnText1156" fill="#000000" font-size="13" x="92.95833333333371" y="13.325" font-family="微软雅黑" font-weight="bold" font-style="normal" text-decoration="none" family="微软雅黑" text-anchor="middle" size="13">感情概率记录</text><text id="ProcessOnText1157" fill="#000000" font-size="13" x="92.95833333333371" y="29.575" font-family="微软雅黑" font-weight="bold" font-style="normal" text-decoration="none" family="微软雅黑" text-anchor="middle" size="13">vector&lt;double&gt;[6]</text></g></g><g id="ProcessOnG1158" transform="matrix(1.0,0.0,0.0,1.0,1044.3452380952338,1287.7777777777785)" opacity="1.0"><path id="ProcessOnPath1159" d="M0.0 60.833333333333314L127.50000000000034 0.0L255.00000000000068 60.833333333333314L127.50000000000034 121.66666666666663Z" stroke="#323232" stroke-width="2.0" stroke-dasharray="none" opacity="1.0" fill="#ffffff"/><g id="ProcessOnG1160" transform="matrix(1.0,0.0,0.0,1.0,10.0,28.94166666666665)"><text id="ProcessOnText1161" fill="#000000" font-size="13" x="116.50000000000034" y="13.325" font-family="微软雅黑" font-weight="bold" font-style="normal" text-decoration="none" family="微软雅黑" text-anchor="middle" size="13">测算距离</text><text id="ProcessOnText1162" fill="#000000" font-size="13" x="116.50000000000034" y="29.575" font-family="微软雅黑" font-weight="bold" font-style="normal" text-decoration="none" family="微软雅黑" text-anchor="middle" size="13">dis[]</text><text id="ProcessOnText1163" fill="#000000" font-size="13" x="116.50000000000034" y="45.825" font-family="微软雅黑" font-weight="bold" font-style="normal" text-decoration="none" family="微软雅黑" text-anchor="middle" size="13">元素：id，dis，emotion[6]</text><text id="ProcessOnText1164" fill="#000000" font-size="13" x="116.50000000000034" y="62.075" font-family="微软雅黑" font-weight="bold" font-style="normal" text-decoration="none" family="微软雅黑" text-anchor="middle" size="13"></text></g></g><g id="ProcessOnG1165"><path id="ProcessOnPath1166" d="M1007.797619047617 1174.017857142857L1171.8452380952344 1174.017857142857L1171.8452380952344 1272.5417098002788" stroke="#323232" stroke-width="2.0" stroke-dasharray="none" fill="none" marker-end="url(#ProcessOnMarker1167)"/></g><g id="ProcessOnG1169"><path id="ProcessOnPath1170" d="M1007.7976190476179 1544.085884353742L1171.8452380952344 1544.085884353742L1171.8452380952344 1424.6805124219447" stroke="#323232" stroke-width="2.0" stroke-dasharray="none" fill="none" marker-end="url(#ProcessOnMarker1171)"/></g><g id="ProcessOnG1173"><path id="ProcessOnPath1174" d="M1299.3452380952347 1348.6111111111115L1317.6785714285681 1348.6111111111115L1317.6785714285681 1348.6111111111115L1320.775836784402 1348.6111111111115" stroke="#323232" stroke-width="2.0" stroke-dasharray="none" fill="none" marker-end="url(#ProcessOnMarker1175)"/></g><g id="ProcessOnG1177" transform="matrix(1.0,0.0,0.0,1.0,1336.0119047619016,1308.6111111111115)" opacity="1.0"><path id="ProcessOnPath1178" d="M0.0 40.0L60.0 0.0L120.0 40.0L60.0 80.0Z" stroke="#323232" stroke-width="2.0" stroke-dasharray="none" opacity="1.0" fill="#ffffff"/><g id="ProcessOnG1179" transform="matrix(1.0,0.0,0.0,1.0,10.0,32.275)"><text id="ProcessOnText1180" fill="#000000" font-size="13" x="49.0" y="13.325" font-family="微软雅黑" font-weight="bold" font-style="normal" text-decoration="none" family="微软雅黑" text-anchor="middle" size="13">排序</text></g></g><g id="ProcessOnG1181" transform="matrix(1.0,0.0,0.0,1.0,1249.3452380952351,1210.0308641975314)" opacity="1.0"><path id="ProcessOnPath1182" d="M0.0 40.0L60.0 0.0L120.0 40.0L60.0 80.0Z" stroke="#323232" stroke-width="2.0" stroke-dasharray="none" opacity="1.0" fill="#ffffff"/><g id="ProcessOnG1183" transform="matrix(1.0,0.0,0.0,1.0,10.0,24.15)"><text id="ProcessOnText1184" fill="#000000" font-size="13" x="49.0" y="13.325" font-family="微软雅黑" font-weight="bold" font-style="normal" text-decoration="none" family="微软雅黑" text-anchor="middle" size="13">比较函数</text><text id="ProcessOnText1185" fill="#000000" font-size="13" x="49.0" y="29.575" font-family="微软雅黑" font-weight="bold" font-style="normal" text-decoration="none" family="微软雅黑" text-anchor="middle" size="13">cmp</text></g></g><g id="ProcessOnG1186"><path id="ProcessOnPath1187" d="M1171.8452380952342 1287.7777777777785L1171.8452380952342 1250.0308641975314L1234.1091701177354 1250.0308641975314" stroke="#323232" stroke-width="2.0" stroke-dasharray="none" fill="none" marker-end="url(#ProcessOnMarker1188)"/></g><g id="ProcessOnG1190"><path id="ProcessOnPath1191" d="M1369.3452380952351 1250.0308641975314L1396.0119047619016 1250.0308641975314L1396.0119047619016 1293.3750431336118" stroke="#323232" stroke-width="2.0" stroke-dasharray="none" fill="none" marker-end="url(#ProcessOnMarker1192)"/></g><g id="ProcessOnG1194" transform="matrix(1.0,0.0,0.0,1.0,1301.4874420275617,1434.3055555555554)" opacity="1.0"><path id="ProcessOnPath1195" d="M0.0 36.93877551020421L94.67078189300423 0.0L189.34156378600846 36.93877551020421L94.67078189300423 73.87755102040842L0.0 36.93877551020421Z" stroke="#323232" stroke-width="2.0" stroke-dasharray="none" opacity="1.0" fill="#ffffff"/><g id="ProcessOnG1196" transform="matrix(1.0,0.0,0.0,1.0,10.0,12.56377551020421)"><text id="ProcessOnText1197" fill="#000000" font-size="13" x="83.67078189300423" y="13.325" font-family="微软雅黑" font-weight="bold" font-style="normal" text-decoration="none" family="微软雅黑" text-anchor="middle" size="13">取前k个</text><text id="ProcessOnText1198" fill="#000000" font-size="13" x="83.67078189300423" y="29.575" font-family="微软雅黑" font-weight="bold" font-style="normal" text-decoration="none" family="微软雅黑" text-anchor="middle" size="13">感情概率*距离倒数</text><text id="ProcessOnText1199" fill="#000000" font-size="13" x="83.67078189300423" y="45.825" font-family="微软雅黑" font-weight="bold" font-style="normal" text-decoration="none" family="微软雅黑" text-anchor="middle" size="13">求和</text></g></g><g id="ProcessOnG1200"><path id="ProcessOnPath1201" d="M1002.797619047617 1020.1636904761904L1171.8452380952342 1020.1636904761904L1171.8452380952342 1272.5417098002788" stroke="#323232" stroke-width="2.0" stroke-dasharray="none" fill="none" marker-end="url(#ProcessOnMarker1202)"/></g><g id="ProcessOnG1204"><path id="ProcessOnPath1205" d="M1396.0119047619016 1388.6111111111115L1396.0119047619016 1411.4583333333333L1396.1582239205657 1411.4583333333333L1396.1582239205657 1419.0694875780557" stroke="#323232" stroke-width="2.0" stroke-dasharray="none" fill="none" marker-end="url(#ProcessOnMarker1206)"/></g><g id="ProcessOnG1208" transform="matrix(1.0,0.0,0.0,1.0,1295.7385348111445,1559.1666666666667)" opacity="1.0"><path id="ProcessOnPath1209" d="M0.0 32.109053497942625L100.00000000000045 0.0L200.0000000000009 32.109053497942625L100.00000000000045 64.21810699588525L0.0 32.109053497942625Z" stroke="#323232" stroke-width="2.0" stroke-dasharray="none" opacity="1.0" fill="#ffffff"/><g id="ProcessOnG1210" transform="matrix(1.0,0.0,0.0,1.0,10.0,23.984053497942625)"><text id="ProcessOnText1211" fill="#000000" font-size="13" x="89.00000000000045" y="13.325" font-family="微软雅黑" font-weight="bold" font-style="normal" text-decoration="none" family="微软雅黑" text-anchor="middle" size="13">归一化</text></g></g><g id="ProcessOnG1212"><path id="ProcessOnPath1213" d="M1396.1582239205661 1508.1831065759636L1396.1582239205661 1533.6748866213154L1395.738534811145 1533.6748866213154L1395.738534811145 1543.930598689167" stroke="#323232" stroke-width="2.0" stroke-dasharray="none" fill="none" marker-end="url(#ProcessOnMarker1214)"/></g><g id="ProcessOnG1216"><path id="ProcessOnPath1217" d="M1395.738534811145 1623.3847736625519L1395.738534811145 1653.3847736625519L394.16666666666714 1653.3847736625519L394.16666666666714 1156.662627551021L379.4027346441669 1156.662627551021" stroke="#323232" stroke-width="2.0" stroke-dasharray="none" fill="none" marker-end="url(#ProcessOnMarker1218)"/></g><g id="ProcessOnG1220" transform="matrix(1.0,0.0,0.0,1.0,264.1666666666672,1131.6626275510214)" opacity="1.0"><path id="ProcessOnPath1221" d="M16.666666666666668 0.0L83.33333333333333 0.0C105.55555555555556 0.0 105.55555555555556 50.0 83.33333333333333 50.0L16.666666666666668 50.0C-5.555555555555556 50.0 -5.555555555555556 0.0 16.666666666666668 0.0Z" stroke="#323232" stroke-width="2.0" stroke-dasharray="none" opacity="1.0" fill="#ffffff"/><g id="ProcessOnG1222" transform="matrix(1.0,0.0,0.0,1.0,10.0,16.875)"><text id="ProcessOnText1223" fill="#000000" font-size="13" x="39.0" y="13.325" font-family="微软雅黑" font-weight="bold" font-style="normal" text-decoration="none" family="微软雅黑" text-anchor="middle" size="13">输出结果</text></g></g><g id="ProcessOnG1224"><path id="ProcessOnPath1225" d="M1003.1666666666665 847.6666666666667L1003.1666666666665 877.6666666666667L629.4404761904741 877.6666666666667L629.4404761904741 1139.6428571428569L702.2044082129743 1139.6428571428569" stroke="#323232" stroke-width="2.0" stroke-dasharray="none" fill="none" marker-end="url(#ProcessOnMarker1226)"/></g><g id="ProcessOnG1228"><path id="ProcessOnPath1229" d="M1003.1666666666665 847.6666666666667L1003.1666666666665 877.6666666666667L627.440476190475 877.6666666666667L627.440476190475 1467.8358843537417L702.2044082129752 1467.8358843537417" stroke="#323232" stroke-width="2.0" stroke-dasharray="none" fill="none" marker-end="url(#ProcessOnMarker1230)"/></g><g id="ProcessOnG1232" transform="matrix(1.0,0.0,0.0,1.0,1194.0768143472633,1497.5)" opacity="1.0"><path id="ProcessOnPath1233" d="M0.0 29.81738683127594C0.0 -9.939128943758647 102.66666666666742 -9.939128943758647 102.66666666666742 29.81738683127594C102.66666666666742 69.57390260631053 0.0 69.57390260631053 0.0 29.81738683127594Z" stroke="#323232" stroke-width="2.0" stroke-dasharray="none" opacity="1.0" fill="#ffffff"/><g id="ProcessOnG1234" transform="matrix(1.0,0.0,0.0,1.0,10.0,13.56738683127594)"><text id="ProcessOnText1235" fill="#000000" font-size="13" x="40.33333333333371" y="13.325" font-family="微软雅黑" font-weight="bold" font-style="normal" text-decoration="none" family="微软雅黑" text-anchor="middle" size="13">感情概率结果</text><text id="ProcessOnText1236" fill="#000000" font-size="13" x="40.33333333333371" y="29.575" font-family="微软雅黑" font-weight="bold" font-style="normal" text-decoration="none" family="微软雅黑" text-anchor="middle" size="13">double[6]</text></g></g><g id="ProcessOnG1237"><path id="ProcessOnPath1238" d="M1245.410147680597 1497.5L1245.410147680597 1471.2443310657595L1286.251374050062 1471.2443310657595" stroke="#323232" stroke-width="2.0" stroke-dasharray="none" fill="none" marker-end="url(#ProcessOnMarker1239)"/></g></g></g></svg>