<svg xmlns="http://www.w3.org/2000/svg" xmlns:xlink="http://www.w3.org/1999/xlink" id="processonSvg1000" viewBox="224.2857142857137 351.42857142857156 1145.3571428571431 1023.0158730158728" width="1145.3571428571431" height="1023.0158730158728"><defs id="ProcessOnDefs1001"><marker id="ProcessOnMarker1021" markerUnits="userSpaceOnUse" orient="auto" markerWidth="16.23606797749979" markerHeight="10.550836550532098" viewBox="-1.0 -1.3763819204711736 16.23606797749979 10.550836550532098" refX="-1.0" refY="3.8990363547948754"><path id="ProcessOnPath1022" d="M12.0 3.8990363547948754L0.0 7.798072709589751V0.0Z" stroke="#323232" stroke-width="2.0" fill="#323232" transform="matrix(1.0,0.0,0.0,1.0,0.0,0.0)"/></marker><marker id="ProcessOnMarker1035" markerUnits="userSpaceOnUse" orient="auto" markerWidth="16.23606797749979" markerHeight="10.550836550532098" viewBox="-1.0 -1.3763819204711736 16.23606797749979 10.550836550532098" refX="-1.0" refY="3.8990363547948754"><path id="ProcessOnPath1036" d="M12.0 3.8990363547948754L0.0 7.798072709589751V0.0Z" stroke="#323232" stroke-width="2.0" fill="#323232" transform="matrix(1.0,0.0,0.0,1.0,0.0,0.0)"/></marker><marker id="ProcessOnMarker1039" markerUnits="userSpaceOnUse" orient="auto" markerWidth="16.23606797749979" markerHeight="10.550836550532098" viewBox="-1.0 -1.3763819204711736 16.23606797749979 10.550836550532098" refX="-1.0" refY="3.8990363547948754"><path id="ProcessOnPath1040" d="M12.0 3.8990363547948754L0.0 7.798072709589751V0.0Z" stroke="#323232" stroke-width="2.0" fill="#323232" transform="matrix(1.0,0.0,0.0,1.0,0.0,0.0)"/></marker><marker id="ProcessOnMarker1048" markerUnits="userSpaceOnUse" orient="auto" markerWidth="16.23606797749979" markerHeight="10.550836550532098" viewBox="-1.0 -1.3763819204711736 16.23606797749979 10.550836550532098" refX="-1.0" refY="3.8990363547948754"><path id="ProcessOnPath1049" d="M12.0 3.8990363547948754L0.0 7.798072709589751V0.0Z" stroke="#323232" stroke-width="2.0" fill="#323232" transform="matrix(1.0,0.0,0.0,1.0,0.0,0.0)"/></marker><marker id="ProcessOnMarker1058" markerUnits="userSpaceOnUse" orient="auto" markerWidth="16.23606797749979" markerHeight="10.550836550532098" viewBox="-1.0 -1.3763819204711736 16.23606797749979 10.550836550532098" refX="-1.0" refY="3.8990363547948754"><path id="ProcessOnPath1059" d="M12.0 3.8990363547948754L0.0 7.798072709589751V0.0Z" stroke="#323232" stroke-width="2.0" fill="#323232" transform="matrix(1.0,0.0,0.0,1.0,0.0,0.0)"/></marker><marker id="ProcessOnMarker1070" markerUnits="userSpaceOnUse" orient="auto" markerWidth="16.23606797749979" markerHeight="10.550836550532098" viewBox="-1.0 -1.3763819204711736 16.23606797749979 10.550836550532098" refX="-1.0" refY="3.8990363547948754"><path id="ProcessOnPath1071" d="M12.0 3.8990363547948754L0.0 7.798072709589751V0.0Z" stroke="#323232" stroke-width="2.0" fill="#323232" transform="matrix(1.0,0.0,0.0,1.0,0.0,0.0)"/></marker><marker id="ProcessOnMarker1080" markerUnits="userSpaceOnUse" orient="auto" markerWidth="16.23606797749979" markerHeight="10.550836550532098" viewBox="-1.0 -1.3763819204711736 16.23606797749979 10.550836550532098" refX="-1.0" refY="3.8990363547948754"><path id="ProcessOnPath1081" d="M12.0 3.8990363547948754L0.0 7.798072709589751V0.0Z" stroke="#323232" stroke-width="2.0" fill="#323232" transform="matrix(1.0,0.0,0.0,1.0,0.0,0.0)"/></marker><marker id="ProcessOnMarker1084" markerUnits="userSpaceOnUse" orient="auto" markerWidth="16.23606797749979" markerHeight="10.550836550532098" viewBox="-1.0 -1.3763819204711736 16.23606797749979 10.550836550532098" refX="-1.0" refY="3.8990363547948754"><path id="ProcessOnPath1085" d="M12.0 3.8990363547948754L0.0 7.798072709589751V0.0Z" stroke="#323232" stroke-width="2.0" fill="#323232" transform="matrix(1.0,0.0,0.0,1.0,0.0,0.0)"/></marker><marker id="ProcessOnMarker1116" markerUnits="userSpaceOnUse" orient="auto" markerWidth="16.23606797749979" markerHeight="10.550836550532098" viewBox="-1.0 -1.3763819204711736 16.23606797749979 10.550836550532098" refX="-1.0" refY="3.8990363547948754"><path id="ProcessOnPath1117" d="M12.0 3.8990363547948754L0.0 7.798072709589751V0.0Z" stroke="#323232" stroke-width="2.0" fill="#323232" transform="matrix(1.0,0.0,0.0,1.0,0.0,0.0)"/></marker><marker id="ProcessOnMarker1120" markerUnits="userSpaceOnUse" orient="auto" markerWidth="16.23606797749979" markerHeight="10.550836550532098" viewBox="-1.0 -1.3763819204711736 16.23606797749979 10.550836550532098" refX="-1.0" refY="3.8990363547948754"><path id="ProcessOnPath1121" d="M12.0 3.8990363547948754L0.0 7.798072709589751V0.0Z" stroke="#323232" stroke-width="2.0" fill="#323232" transform="matrix(1.0,0.0,0.0,1.0,0.0,0.0)"/></marker><marker id="ProcessOnMarker1124" markerUnits="userSpaceOnUse" orient="auto" markerWidth="16.23606797749979" markerHeight="10.550836550532098" viewBox="-1.0 -1.3763819204711736 16.23606797749979 10.550836550532098" refX="-1.0" refY="3.8990363547948754"><path id="ProcessOnPath1125" d="M12.0 3.8990363547948754L0.0 7.798072709589751V0.0Z" stroke="#323232" stroke-width="2.0" fill="#323232" transform="matrix(1.0,0.0,0.0,1.0,0.0,0.0)"/></marker><marker id="ProcessOnMarker1144" markerUnits="userSpaceOnUse" orient="auto" markerWidth="16.23606797749979" markerHeight="10.550836550532098" viewBox="-1.0 -1.3763819204711736 16.23606797749979 10.550836550532098" refX="-1.0" refY="3.8990363547948754"><path id="ProcessOnPath1145" d="M12.0 3.8990363547948754L0.0 7.798072709589751V0.0Z" stroke="#323232" stroke-width="2.0" fill="#323232" transform="matrix(1.0,0.0,0.0,1.0,0.0,0.0)"/></marker><marker id="ProcessOnMarker1154" markerUnits="userSpaceOnUse" orient="auto" markerWidth="16.23606797749979" markerHeight="10.550836550532098" viewBox="-1.0 -1.3763819204711736 16.23606797749979 10.550836550532098" refX="-1.0" refY="3.8990363547948754"><path id="ProcessOnPath1155" d="M12.0 3.8990363547948754L0.0 7.798072709589751V0.0Z" stroke="#323232" stroke-width="2.0" fill="#323232" transform="matrix(1.0,0.0,0.0,1.0,0.0,0.0)"/></marker><marker id="ProcessOnMarker1169" markerUnits="userSpaceOnUse" orient="auto" markerWidth="16.23606797749979" markerHeight="10.550836550532098" viewBox="-1.0 -1.3763819204711736 16.23606797749979 10.550836550532098" refX="-1.0" refY="3.8990363547948754"><path id="ProcessOnPath1170" d="M12.0 3.8990363547948754L0.0 7.798072709589751V0.0Z" stroke="#323232" stroke-width="2.0" fill="#323232" transform="matrix(1.0,0.0,0.0,1.0,0.0,0.0)"/></marker><marker id="ProcessOnMarker1173" markerUnits="userSpaceOnUse" orient="auto" markerWidth="16.23606797749979" markerHeight="10.550836550532098" viewBox="-1.0 -1.3763819204711736 16.23606797749979 10.550836550532098" refX="-1.0" refY="3.8990363547948754"><path id="ProcessOnPath1174" d="M12.0 3.8990363547948754L0.0 7.798072709589751V0.0Z" stroke="#323232" stroke-width="2.0" fill="#323232" transform="matrix(1.0,0.0,0.0,1.0,0.0,0.0)"/></marker><marker id="ProcessOnMarker1198" markerUnits="userSpaceOnUse" orient="auto" markerWidth="16.23606797749979" markerHeight="10.550836550532098" viewBox="-1.0 -1.3763819204711736 16.23606797749979 10.550836550532098" refX="-1.0" refY="3.8990363547948754"><path id="ProcessOnPath1199" d="M12.0 3.8990363547948754L0.0 7.798072709589751V0.0Z" stroke="#323232" stroke-width="2.0" fill="#323232" transform="matrix(1.0,0.0,0.0,1.0,0.0,0.0)"/></marker><marker id="ProcessOnMarker1202" markerUnits="userSpaceOnUse" orient="auto" markerWidth="16.23606797749979" markerHeight="10.550836550532098" viewBox="-1.0 -1.3763819204711736 16.23606797749979 10.550836550532098" refX="-1.0" refY="3.8990363547948754"><path id="ProcessOnPath1203" d="M12.0 3.8990363547948754L0.0 7.798072709589751V0.0Z" stroke="#323232" stroke-width="2.0" fill="#323232" transform="matrix(1.0,0.0,0.0,1.0,0.0,0.0)"/></marker><marker id="ProcessOnMarker1206" markerUnits="userSpaceOnUse" orient="auto" markerWidth="16.23606797749979" markerHeight="10.550836550532098" viewBox="-1.0 -1.3763819204711736 16.23606797749979 10.550836550532098" refX="-1.0" refY="3.8990363547948754"><path id="ProcessOnPath1207" d="M12.0 3.8990363547948754L0.0 7.798072709589751V0.0Z" stroke="#323232" stroke-width="2.0" fill="#323232" transform="matrix(1.0,0.0,0.0,1.0,0.0,0.0)"/></marker><marker id="ProcessOnMarker1210" markerUnits="userSpaceOnUse" orient="auto" markerWidth="16.23606797749979" markerHeight="10.550836550532098" viewBox="-1.0 -1.3763819204711736 16.23606797749979 10.550836550532098" refX="-1.0" refY="3.8990363547948754"><path id="ProcessOnPath1211" d="M12.0 3.8990363547948754L0.0 7.798072709589751V0.0Z" stroke="#323232" stroke-width="2.0" fill="#323232" transform="matrix(1.0,0.0,0.0,1.0,0.0,0.0)"/></marker><marker id="ProcessOnMarker1214" markerUnits="userSpaceOnUse" orient="auto" markerWidth="16.23606797749979" markerHeight="10.550836550532098" viewBox="-1.0 -1.3763819204711736 16.23606797749979 10.550836550532098" refX="-1.0" refY="3.8990363547948754"><path id="ProcessOnPath1215" d="M12.0 3.8990363547948754L0.0 7.798072709589751V0.0Z" stroke="#323232" stroke-width="2.0" fill="#323232" transform="matrix(1.0,0.0,0.0,1.0,0.0,0.0)"/></marker><marker id="ProcessOnMarker1218" markerUnits="userSpaceOnUse" orient="auto" markerWidth="16.23606797749979" markerHeight="10.550836550532098" viewBox="-1.0 -1.3763819204711736 16.23606797749979 10.550836550532098" refX="-1.0" refY="3.8990363547948754"><path id="ProcessOnPath1219" d="M12.0 3.8990363547948754L0.0 7.798072709589751V0.0Z" stroke="#323232" stroke-width="2.0" fill="#323232" transform="matrix(1.0,0.0,0.0,1.0,0.0,0.0)"/></marker></defs><g id="ProcessOnG1002"><path id="ProcessOnPath1003" d="M224.2857142857137 351.42857142857156H1369.6428571428569V1374.4444444444443H224.28571428571377V351.42857142857156Z" fill="none"/><g id="ProcessOnG1004"><g id="ProcessOnG1005" transform="matrix(1.0,0.0,0.0,1.0,531.7261904761868,763.2142857142857)" opacity="1.0"><path id="ProcessOnPath1006" d="M0.0 0.0L293.9880952380988 0.0L293.9880952380988 168.21428571428567L0.0 168.21428571428567Z" stroke="#323232" stroke-width="2.0" stroke-dasharray="none" opacity="1.0" fill="#ffffff"/><g id="ProcessOnG1007" transform="matrix(1.0,0.0,0.0,1.0,10.0,70.98214285714283)"><text id="ProcessOnText1008" fill="#000000" font-size="21" x="0.0" y="21.525" font-family="微软雅黑" font-weight="bold" font-style="normal" text-decoration="none" family="微软雅黑" text-anchor="start" size="21">训练集</text></g></g><g id="ProcessOnG1009" transform="matrix(1.0,0.0,0.0,1.0,502.04761904761875,371.42857142857156)" opacity="1.0"><path id="ProcessOnPath1010" d="M0.0 0.0L570.8095238095237 0.0L570.8095238095237 329.99999999999994L0.0 329.99999999999994Z" stroke="#323232" stroke-width="2.0" stroke-dasharray="none" opacity="1.0" fill="#ffffff"/></g><g id="ProcessOnG1011" transform="matrix(1.0,0.0,0.0,1.0,673.0476190476179,502.6666666666668)" opacity="1.0"><path id="ProcessOnPath1012" d="M0.0 35.0L45.0 0.0L90.0 35.0L45.0 70.0L0.0 35.0Z" stroke="#323232" stroke-width="2.0" stroke-dasharray="none" opacity="1.0" fill="#ffffff"/><g id="ProcessOnG1013" transform="matrix(1.0,0.0,0.0,1.0,10.0,26.875)"><text id="ProcessOnText1014" fill="#000000" font-size="13" x="34.0" y="13.325" font-family="微软雅黑" font-weight="bold" font-style="normal" text-decoration="none" family="微软雅黑" text-anchor="middle" size="13">切割</text></g></g><g id="ProcessOnG1015" transform="matrix(1.0,0.0,0.0,1.0,540.0476190476187,512.6666666666667)" opacity="1.0"><path id="ProcessOnPath1016" d="M16.666666666666668 0.0L83.33333333333333 0.0C105.55555555555556 0.0 105.55555555555556 50.0 83.33333333333333 50.0L16.666666666666668 50.0C-5.555555555555556 50.0 -5.555555555555556 0.0 16.666666666666668 0.0Z" stroke="#323232" stroke-width="2.0" stroke-dasharray="none" opacity="1.0" fill="#ffffff"/><g id="ProcessOnG1017" transform="matrix(1.0,0.0,0.0,1.0,10.0,16.875)"><text id="ProcessOnText1018" fill="#000000" font-size="13" x="39.0" y="13.325" font-family="微软雅黑" font-weight="bold" font-style="normal" text-decoration="none" family="微软雅黑" text-anchor="middle" size="13">文件</text></g></g><g id="ProcessOnG1019"><path id="ProcessOnPath1020" d="M640.0476190476182 537.6666666666666L656.5476190476181 537.6666666666666L656.5476190476181 537.6666666666666L657.8115510701181 537.6666666666666" stroke="#323232" stroke-width="2.0" stroke-dasharray="none" fill="none" marker-end="url(#ProcessOnMarker1021)"/></g><g id="ProcessOnG1023" transform="matrix(1.0,0.0,0.0,1.0,841.9226190476181,379.6666666666667)" opacity="1.0"><path id="ProcessOnPath1024" d="M0.0 40.5L107.25 0.0L214.5 40.5L107.25 81.0L0.0 40.5Z" stroke="#323232" stroke-width="2.0" stroke-dasharray="none" opacity="1.0" fill="#ffffff"/><g id="ProcessOnG1025" transform="matrix(1.0,0.0,0.0,1.0,10.0,25.5)"><text id="ProcessOnText1026" fill="#000000" font-size="12" x="96.25" y="12.3" font-family="微软雅黑" font-weight="bold" font-style="normal" text-decoration="none" family="微软雅黑" text-anchor="middle" size="12">加到词单(不重复)</text><text id="ProcessOnText1027" fill="#000000" font-size="12" x="96.25" y="27.3" font-family="微软雅黑" font-weight="bold" font-style="normal" text-decoration="none" family="微软雅黑" text-anchor="middle" size="12">map&lt;string,int&gt;</text></g></g><g id="ProcessOnG1028" transform="matrix(1.0,0.0,0.0,1.0,844.9226190476181,605.1666666666667)" opacity="1.0"><path id="ProcessOnPath1029" d="M0.0 39.5L103.75 0.0L207.5 39.5L103.75 79.0L0.0 39.5Z" stroke="#323232" stroke-width="2.0" stroke-dasharray="none" opacity="1.0" fill="#ffffff"/><g id="ProcessOnG1030" transform="matrix(1.0,0.0,0.0,1.0,10.0,23.25)"><text id="ProcessOnText1031" fill="#000000" font-size="13" x="92.75" y="13.325" font-family="微软雅黑" font-weight="bold" font-style="normal" text-decoration="none" family="微软雅黑" text-anchor="middle" size="13">加到文本矩阵</text><text id="ProcessOnText1032" fill="#000000" font-size="13" x="92.75" y="29.575" font-family="微软雅黑" font-weight="bold" font-style="normal" text-decoration="none" family="微软雅黑" text-anchor="middle" size="13">vector&lt;vector&lt;int&gt;&gt;</text></g></g><g id="ProcessOnG1033"><path id="ProcessOnPath1034" d="M718.0476190476179 502.6666666666668L718.0476190476179 420.1666666666667L826.6865510701183 420.1666666666667" stroke="#323232" stroke-width="2.0" stroke-dasharray="none" fill="none" marker-end="url(#ProcessOnMarker1035)"/></g><g id="ProcessOnG1037"><path id="ProcessOnPath1038" d="M718.0476190476179 572.6666666666666L718.0476190476179 644.6666666666665L829.6865510701183 644.6666666666665" stroke="#323232" stroke-width="2.0" stroke-dasharray="none" fill="none" marker-end="url(#ProcessOnMarker1039)"/></g><g id="ProcessOnG1041" transform="matrix(1.0,0.0,0.0,1.0,864.297619047618,491.1666666666669)" opacity="1.0"><path id="ProcessOnPath1042" d="M0.0 46.5L84.375 0.0L168.75 46.5L84.375 93.0L0.0 46.5Z" stroke="#323232" stroke-width="2.0" stroke-dasharray="none" opacity="1.0" fill="#ffffff"/><g id="ProcessOnG1043" transform="matrix(1.0,0.0,0.0,1.0,10.0,30.25)"><text id="ProcessOnText1044" fill="#000000" font-size="13" x="73.375" y="13.325" font-family="微软雅黑" font-weight="bold" font-style="normal" text-decoration="none" family="微软雅黑" text-anchor="middle" size="13">感情记录</text><text id="ProcessOnText1045" fill="#000000" font-size="13" x="73.375" y="29.575" font-family="微软雅黑" font-weight="bold" font-style="normal" text-decoration="none" family="微软雅黑" text-anchor="middle" size="13">vector&lt;int&gt;</text></g></g><g id="ProcessOnG1046"><path id="ProcessOnPath1047" d="M763.047619047618 537.6666666666666L775.547619047618 537.6666666666666L775.547619047618 537.6666666666666L776.547619047618 537.6666666666666" stroke="#323232" stroke-width="2.0" stroke-dasharray="none" fill="none" marker-end="url(#ProcessOnMarker1048)"/></g><g id="ProcessOnG1050" transform="matrix(1.0,0.0,0.0,1.0,788.047619047618,513.1666666666667)" opacity="1.0"><path id="ProcessOnPath1051" d="M0.0 0.0L53.875 0.0L53.875 49.0L0.0 49.0Z" stroke="#323232" stroke-width="2.0" stroke-dasharray="none" opacity="1.0" fill="#ffffff"/><g id="ProcessOnG1052" transform="matrix(1.0,0.0,0.0,1.0,10.0,0.125)"><text id="ProcessOnText1053" fill="#000000" font-size="13" x="15.9375" y="13.325" font-family="微软雅黑" font-weight="bold" font-style="normal" text-decoration="none" family="微软雅黑" text-anchor="middle" size="13">感情</text><text id="ProcessOnText1054" fill="#000000" font-size="13" x="15.9375" y="29.575" font-family="微软雅黑" font-weight="bold" font-style="normal" text-decoration="none" family="微软雅黑" text-anchor="middle" size="13">映射</text><text id="ProcessOnText1055" fill="#000000" font-size="13" x="15.9375" y="45.825" font-family="微软雅黑" font-weight="bold" font-style="normal" text-decoration="none" family="微软雅黑" text-anchor="middle" size="13">map</text></g></g><g id="ProcessOnG1056"><path id="ProcessOnPath1057" d="M841.9226190476181 537.6666666666666L853.1101190476181 537.6666666666666L853.1101190476181 537.6666666666666L854.1101190476181 537.6666666666666" stroke="#323232" stroke-width="2.0" stroke-dasharray="none" fill="none" marker-end="url(#ProcessOnMarker1058)"/></g><g id="ProcessOnG1060" transform="matrix(1.0,0.0,0.0,1.0,244.2857142857137,427.1428571428566)" opacity="1.0"><path id="ProcessOnPath1061" d="M16.666666666666668 0.0L83.33333333333333 0.0C105.55555555555556 0.0 105.55555555555556 50.0 83.33333333333333 50.0L16.666666666666668 50.0C-5.555555555555556 50.0 -5.555555555555556 0.0 16.666666666666668 0.0Z" stroke="#323232" stroke-width="2.0" stroke-dasharray="none" opacity="1.0" fill="#ffffff"/><g id="ProcessOnG1062" transform="matrix(1.0,0.0,0.0,1.0,10.0,16.875)"><text id="ProcessOnText1063" fill="#000000" font-size="13" x="39.0" y="13.325" font-family="微软雅黑" font-weight="bold" font-style="normal" text-decoration="none" family="微软雅黑" text-anchor="middle" size="13">训练集</text></g></g><g id="ProcessOnG1064" transform="matrix(1.0,0.0,0.0,1.0,244.44444444444431,581.1904761904761)" opacity="1.0"><path id="ProcessOnPath1065" d="M16.666666666666668 0.0L83.33333333333333 0.0C105.55555555555556 0.0 105.55555555555556 50.0 83.33333333333333 50.0L16.666666666666668 50.0C-5.555555555555556 50.0 -5.555555555555556 0.0 16.666666666666668 0.0Z" stroke="#323232" stroke-width="2.0" stroke-dasharray="none" opacity="1.0" fill="#ffffff"/><g id="ProcessOnG1066" transform="matrix(1.0,0.0,0.0,1.0,10.0,16.875)"><text id="ProcessOnText1067" fill="#000000" font-size="13" x="39.0" y="13.325" font-family="微软雅黑" font-weight="bold" font-style="normal" text-decoration="none" family="微软雅黑" text-anchor="middle" size="13">验证集</text></g></g><g id="ProcessOnG1068"><path id="ProcessOnPath1069" d="M344.2857142857137 452.1428571428565L423.16666666666623 452.1428571428565L423.16666666666623 536.4285714285716L486.811551070119 536.4285714285716" stroke="#323232" stroke-width="2.0" stroke-dasharray="none" fill="none" marker-end="url(#ProcessOnMarker1070)"/></g><g id="ProcessOnG1072" transform="matrix(1.0,0.0,0.0,1.0,244.9999999999996,682.301587301587)" opacity="1.0"><path id="ProcessOnPath1073" d="M0.0 0.0L100.0 0.0L100.0 70.0L0.0 70.0Z" stroke="#323232" stroke-width="2.0" stroke-dasharray="none" opacity="1.0" fill="#ffffff"/><g id="ProcessOnG1074" transform="matrix(1.0,0.0,0.0,1.0,10.0,10.625)"><text id="ProcessOnText1075" fill="#000000" font-size="13" x="39.0" y="13.325" font-family="微软雅黑" font-weight="bold" font-style="normal" text-decoration="none" family="微软雅黑" text-anchor="middle" size="13">不在训练集词</text><text id="ProcessOnText1076" fill="#000000" font-size="13" x="39.0" y="29.575" font-family="微软雅黑" font-weight="bold" font-style="normal" text-decoration="none" family="微软雅黑" text-anchor="middle" size="13">单不插入文本</text><text id="ProcessOnText1077" fill="#000000" font-size="13" x="39.0" y="45.825" font-family="微软雅黑" font-weight="bold" font-style="normal" text-decoration="none" family="微软雅黑" text-anchor="middle" size="13">矩阵</text></g></g><g id="ProcessOnG1078"><path id="ProcessOnPath1079" d="M294.44444444444434 631.1904761904761L294.44444444444434 656.7460317460316L294.99999999999983 656.7460317460316L294.99999999999983 667.0655193240872" stroke="#323232" stroke-width="2.0" stroke-dasharray="none" fill="none" marker-end="url(#ProcessOnMarker1080)"/></g><g id="ProcessOnG1082"><path id="ProcessOnPath1083" d="M344.44444444444434 606.1904761904761L423.2460317460316 606.1904761904761L423.2460317460316 536.4285714285716L486.811551070119 536.4285714285716" stroke="#323232" stroke-width="2.0" stroke-dasharray="none" fill="none" marker-end="url(#ProcessOnMarker1084)"/></g><g id="ProcessOnG1086" transform="matrix(1.0,0.0,0.0,1.0,619.1666666666623,857.1428571428575)" opacity="1.0"><path id="ProcessOnPath1087" d="M0.0 30.625C0.0 -10.208333333333334 197.91666666666742 -10.208333333333334 197.91666666666742 30.625C197.91666666666742 71.45833333333333 0.0 71.45833333333333 0.0 30.625Z" stroke="#323232" stroke-width="2.0" stroke-dasharray="none" opacity="1.0" fill="#ffffff"/><g id="ProcessOnG1088" transform="matrix(1.0,0.0,0.0,1.0,10.0,14.375)"><text id="ProcessOnText1089" fill="#000000" font-size="13" x="87.95833333333371" y="13.325" font-family="微软雅黑" font-weight="bold" font-style="normal" text-decoration="none" family="微软雅黑" text-anchor="middle" size="13">文本矩阵</text><text id="ProcessOnText1090" fill="#000000" font-size="13" x="87.95833333333371" y="29.575" font-family="微软雅黑" font-weight="bold" font-style="normal" text-decoration="none" family="微软雅黑" text-anchor="middle" size="13">vector&lt;vector&lt;int&gt;&gt;</text></g></g><g id="ProcessOnG1091" transform="matrix(1.0,0.0,0.0,1.0,609.1666666666623,779.5386904761905)" opacity="1.0"><path id="ProcessOnPath1092" d="M0.0 30.625C0.0 -10.208333333333334 207.91666666666742 -10.208333333333334 207.91666666666742 30.625C207.91666666666742 71.45833333333333 0.0 71.45833333333333 0.0 30.625Z" stroke="#323232" stroke-width="2.0" stroke-dasharray="none" opacity="1.0" fill="#ffffff"/><g id="ProcessOnG1093" transform="matrix(1.0,0.0,0.0,1.0,10.0,14.375)"><text id="ProcessOnText1094" fill="#000000" font-size="13" x="92.95833333333371" y="13.325" font-family="微软雅黑" font-weight="bold" font-style="normal" text-decoration="none" family="微软雅黑" text-anchor="middle" size="13">感情记录</text><text id="ProcessOnText1095" fill="#000000" font-size="13" x="92.95833333333371" y="29.575" font-family="微软雅黑" font-weight="bold" font-style="normal" text-decoration="none" family="微软雅黑" text-anchor="middle" size="13">vector&lt;int&gt;</text></g></g><g id="ProcessOnG1096" transform="matrix(1.0,0.0,0.0,1.0,531.7261904761879,950.425170068027)" opacity="1.0"><path id="ProcessOnPath1097" d="M0.0 0.0L293.988095238097 0.0L293.988095238097 163.86054421768722L0.0 163.86054421768722Z" stroke="#323232" stroke-width="2.0" stroke-dasharray="none" opacity="1.0" fill="#ffffff"/><g id="ProcessOnG1098" transform="matrix(1.0,0.0,0.0,1.0,10.0,68.80527210884361)"><text id="ProcessOnText1099" fill="#000000" font-size="21" x="0.0" y="21.525" font-family="微软雅黑" font-weight="bold" font-style="normal" text-decoration="none" family="微软雅黑" text-anchor="start" size="21">验证集</text></g></g><g id="ProcessOnG1100" transform="matrix(1.0,0.0,0.0,1.0,619.1666666666633,1044.3537414966024)" opacity="1.0"><path id="ProcessOnPath1101" d="M0.0 30.625C0.0 -10.208333333333334 197.91666666666742 -10.208333333333334 197.91666666666742 30.625C197.91666666666742 71.45833333333333 0.0 71.45833333333333 0.0 30.625Z" stroke="#323232" stroke-width="2.0" stroke-dasharray="none" opacity="1.0" fill="#ffffff"/><g id="ProcessOnG1102" transform="matrix(1.0,0.0,0.0,1.0,10.0,14.375)"><text id="ProcessOnText1103" fill="#000000" font-size="13" x="87.95833333333371" y="13.325" font-family="微软雅黑" font-weight="bold" font-style="normal" text-decoration="none" family="微软雅黑" text-anchor="middle" size="13">文本矩阵</text><text id="ProcessOnText1104" fill="#000000" font-size="13" x="87.95833333333371" y="29.575" font-family="微软雅黑" font-weight="bold" font-style="normal" text-decoration="none" family="微软雅黑" text-anchor="middle" size="13">vector&lt;vector&lt;int&gt;&gt;</text></g></g><g id="ProcessOnG1105" transform="matrix(1.0,0.0,0.0,1.0,609.1666666666633,966.7495748299328)" opacity="1.0"><path id="ProcessOnPath1106" d="M0.0 30.625C0.0 -10.208333333333334 207.91666666666742 -10.208333333333334 207.91666666666742 30.625C207.91666666666742 71.45833333333333 0.0 71.45833333333333 0.0 30.625Z" stroke="#323232" stroke-width="2.0" stroke-dasharray="none" opacity="1.0" fill="#ffffff"/><g id="ProcessOnG1107" transform="matrix(1.0,0.0,0.0,1.0,10.0,14.375)"><text id="ProcessOnText1108" fill="#000000" font-size="13" x="92.95833333333371" y="13.325" font-family="微软雅黑" font-weight="bold" font-style="normal" text-decoration="none" family="微软雅黑" text-anchor="middle" size="13">感情记录</text><text id="ProcessOnText1109" fill="#000000" font-size="13" x="92.95833333333371" y="29.575" font-family="微软雅黑" font-weight="bold" font-style="normal" text-decoration="none" family="微软雅黑" text-anchor="middle" size="13">vector&lt;int&gt;</text></g></g><g id="ProcessOnG1110" transform="matrix(1.0,0.0,0.0,1.0,285.4166666666672,1277.9126275510216)" opacity="1.0"><path id="ProcessOnPath1111" d="M16.666666666666668 0.0L83.33333333333333 0.0C105.55555555555556 0.0 105.55555555555556 50.0 83.33333333333333 50.0L16.666666666666668 50.0C-5.555555555555556 50.0 -5.555555555555556 0.0 16.666666666666668 0.0Z" stroke="#323232" stroke-width="2.0" stroke-dasharray="none" opacity="1.0" fill="#ffffff"/><g id="ProcessOnG1112" transform="matrix(1.0,0.0,0.0,1.0,10.0,16.875)"><text id="ProcessOnText1113" fill="#000000" font-size="13" x="39.0" y="13.325" font-family="微软雅黑" font-weight="bold" font-style="normal" text-decoration="none" family="微软雅黑" text-anchor="middle" size="13">输出结果</text></g></g><g id="ProcessOnG1114"><path id="ProcessOnPath1115" d="M502.04761904761875 536.4285714285714L472.04761904761887 536.4285714285714L472.04761904761887 537.1428571428573L510.04761904761875 537.1428571428573L510.04761904761875 537.6666666666667L524.8115510701189 537.6666666666667" stroke="#323232" stroke-width="2.0" stroke-dasharray="none" fill="none" marker-end="url(#ProcessOnMarker1116)"/></g><g id="ProcessOnG1118"><path id="ProcessOnPath1119" d="M787.4523809523806 701.4285714285716L787.4523809523806 731.4285714285716L501.72619047618684 731.4285714285716L501.72619047618684 847.3214285714284L516.490122498687 847.3214285714284" stroke="#323232" stroke-width="2.0" stroke-dasharray="none" fill="none" marker-end="url(#ProcessOnMarker1120)"/></g><g id="ProcessOnG1122"><path id="ProcessOnPath1123" d="M787.4523809523806 701.4285714285716L787.4523809523806 731.4285714285716L501.72619047618787 731.4285714285716L501.72619047618787 1032.355442176875L516.490122498688 1032.355442176875" stroke="#323232" stroke-width="2.0" stroke-dasharray="none" fill="none" marker-end="url(#ProcessOnMarker1124)"/></g><g id="ProcessOnG1126" transform="matrix(1.0,0.0,0.0,1.0,897.9583333333322,726.5922619047617)" opacity="1.0"><path id="ProcessOnPath1127" d="M0.0 118.84672619047615L214.59226190476232 0.0L429.18452380952465 118.84672619047615L214.59226190476232 237.6934523809523L0.0 118.84672619047615Z" stroke="#323232" stroke-width="2.0" stroke-dasharray="none" opacity="1.0" fill="#ffffff"/><g id="ProcessOnG1128" transform="matrix(1.0,0.0,0.0,1.0,10.0,0.0)"><text id="ProcessOnText1129" fill="#000000" font-size="13" x="203.59226190476232" y="13.325" font-family="微软雅黑" font-weight="bold" font-style="normal" text-decoration="none" family="微软雅黑" text-anchor="middle" size="13"></text><text id="ProcessOnText1130" fill="#000000" font-size="13" x="203.59226190476232" y="29.575" font-family="微软雅黑" font-weight="bold" font-style="normal" text-decoration="none" family="微软雅黑" text-anchor="middle" size="13"></text><text id="ProcessOnText1131" fill="#000000" font-size="13" x="203.59226190476232" y="45.825" font-family="微软雅黑" font-weight="bold" font-style="normal" text-decoration="none" family="微软雅黑" text-anchor="middle" size="13"></text><text id="ProcessOnText1132" fill="#000000" font-size="13" x="203.59226190476232" y="62.075" font-family="微软雅黑" font-weight="bold" font-style="normal" text-decoration="none" family="微软雅黑" text-anchor="middle" size="13">计算先验概率</text><text id="ProcessOnText1133" fill="#000000" font-size="13" x="203.59226190476232" y="78.325" font-family="微软雅黑" font-weight="bold" font-style="normal" text-decoration="none" family="微软雅黑" text-anchor="middle" size="13">（ 类c下词总数/整个训练样本的词总数）</text><text id="ProcessOnText1134" fill="#000000" font-size="13" x="203.59226190476232" y="94.575" font-family="微软雅黑" font-weight="bold" font-style="normal" text-decoration="none" family="微软雅黑" text-anchor="middle" size="13"></text><text id="ProcessOnText1135" fill="#000000" font-size="13" x="203.59226190476232" y="110.825" font-family="微软雅黑" font-weight="bold" font-style="normal" text-decoration="none" family="微软雅黑" text-anchor="middle" size="13"></text><text id="ProcessOnText1136" fill="#000000" font-size="13" x="203.59226190476232" y="127.075" font-family="微软雅黑" font-weight="bold" font-style="normal" text-decoration="none" family="微软雅黑" text-anchor="middle" size="13"></text><text id="ProcessOnText1137" fill="#000000" font-size="13" x="203.59226190476232" y="143.325" font-family="微软雅黑" font-weight="bold" font-style="normal" text-decoration="none" family="微软雅黑" text-anchor="middle" size="13"></text><text id="ProcessOnText1138" fill="#000000" font-size="13" x="203.59226190476232" y="159.575" font-family="微软雅黑" font-weight="bold" font-style="normal" text-decoration="none" family="微软雅黑" text-anchor="middle" size="13"></text><text id="ProcessOnText1139" fill="#000000" font-size="13" x="203.59226190476232" y="175.825" font-family="微软雅黑" font-weight="bold" font-style="normal" text-decoration="none" family="微软雅黑" text-anchor="middle" size="13"></text><text id="ProcessOnText1140" fill="#000000" font-size="13" x="203.59226190476232" y="192.075" font-family="微软雅黑" font-weight="bold" font-style="normal" text-decoration="none" family="微软雅黑" text-anchor="middle" size="13"></text><text id="ProcessOnText1141" fill="#000000" font-size="13" x="203.59226190476232" y="208.325" font-family="微软雅黑" font-weight="bold" font-style="normal" text-decoration="none" family="微软雅黑" text-anchor="middle" size="13">double[6]</text></g></g><g id="ProcessOnG1142"><path id="ProcessOnPath1143" d="M817.0833333333297 887.7678571428575L857.520833333331 887.7678571428575L857.520833333331 845.4389880952378L882.7222653558324 845.4389880952378" stroke="#323232" stroke-width="2.0" stroke-dasharray="none" fill="none" marker-end="url(#ProcessOnMarker1144)"/></g><g id="ProcessOnG1146" transform="matrix(1.0,0.0,0.0,1.0,966.4285714285709,819.2857142857139)" opacity="1.0"><path id="ProcessOnPath1147" d="M0.0 44.141156462585L71.78571428571456 0.0L143.57142857142912 44.141156462585L71.78571428571456 88.28231292517L0.0 44.141156462585Z" stroke="#323232" stroke-width="2.0" stroke-dasharray="none" opacity="1.0" fill="#ffffff"/><g id="ProcessOnG1148" transform="matrix(1.0,0.0,0.0,1.0,10.0,19.766156462585002)"><text id="ProcessOnText1149" fill="#000000" font-size="13" x="60.78571428571456" y="13.325" font-family="微软雅黑" font-weight="normal" font-style="normal" text-decoration="none" family="微软雅黑" text-anchor="middle" size="13">计算</text><text id="ProcessOnText1150" fill="#000000" font-size="13" x="60.78571428571456" y="29.575" font-family="微软雅黑" font-weight="normal" font-style="normal" text-decoration="none" family="微软雅黑" text-anchor="middle" size="13">某种感情词总数</text><text id="ProcessOnText1151" fill="#000000" font-size="13" x="60.78571428571456" y="45.825" font-family="微软雅黑" font-weight="normal" font-style="normal" text-decoration="none" family="微软雅黑" text-anchor="middle" size="13">int[6]</text></g></g><g id="ProcessOnG1152"><path id="ProcessOnPath1153" d="M817.0833333333297 810.1636904761905L857.520833333331 810.1636904761905L857.520833333331 845.4389880952378L882.7222653558324 845.4389880952378" stroke="#323232" stroke-width="2.0" stroke-dasharray="none" fill="none" marker-end="url(#ProcessOnMarker1154)"/></g><g id="ProcessOnG1156" transform="matrix(1.0,0.0,0.0,1.0,1126.42857142857,820.9183673469386)" opacity="1.0"><path id="ProcessOnPath1157" d="M0.0 42.50850340136037L68.92857142857213 0.0L137.85714285714425 42.50850340136037L68.92857142857213 85.01700680272074L0.0 42.50850340136037Z" stroke="#323232" stroke-width="2.0" stroke-dasharray="none" opacity="1.0" fill="#ffffff"/><g id="ProcessOnG1158" transform="matrix(1.0,0.0,0.0,1.0,10.0,26.25850340136037)"><text id="ProcessOnText1159" fill="#000000" font-size="13" x="57.92857142857213" y="13.325" font-family="微软雅黑" font-weight="normal" font-style="normal" text-decoration="none" family="微软雅黑" text-anchor="middle" size="13">计算</text><text id="ProcessOnText1160" fill="#000000" font-size="13" x="57.92857142857213" y="29.575" font-family="微软雅黑" font-weight="normal" font-style="normal" text-decoration="none" family="微软雅黑" text-anchor="middle" size="13">训练集词总数</text></g></g><g id="ProcessOnG1161" transform="matrix(1.0,0.0,0.0,1.0,1016.5798712342067,981.6804182610537)" opacity="1.0"><path id="ProcessOnPath1162" d="M0.0 65.71428571428572L95.88963799805686 0.0L191.7792759961137 65.71428571428572L95.88963799805686 131.42857142857144L0.0 65.71428571428572Z" stroke="#323232" stroke-width="2.0" stroke-dasharray="none" opacity="1.0" fill="#ffffff"/><g id="ProcessOnG1163" transform="matrix(1.0,0.0,0.0,1.0,10.0,41.33928571428572)"><text id="ProcessOnText1164" fill="#000000" font-size="13" x="84.88963799805686" y="13.325" font-family="微软雅黑" font-weight="bold" font-style="normal" text-decoration="none" family="微软雅黑" text-anchor="middle" size="13">计算</text><text id="ProcessOnText1165" fill="#000000" font-size="13" x="84.88963799805686" y="29.575" font-family="微软雅黑" font-weight="bold" font-style="normal" text-decoration="none" family="微软雅黑" text-anchor="middle" size="13">某种感情下某词出现的次数和</text><text id="ProcessOnText1166" fill="#000000" font-size="13" x="84.88963799805686" y="45.825" font-family="微软雅黑" font-weight="bold" font-style="normal" text-decoration="none" family="微软雅黑" text-anchor="middle" size="13">vector&lt;int&gt;[6]</text></g></g><g id="ProcessOnG1167"><path id="ProcessOnPath1168" d="M817.0833333333297 810.1636904761905L856.8316022837682 810.1636904761905L856.8316022837682 1047.3947039753393L1001.3438032567069 1047.3947039753393" stroke="#323232" stroke-width="2.0" stroke-dasharray="none" fill="none" marker-end="url(#ProcessOnMarker1169)"/></g><g id="ProcessOnG1171"><path id="ProcessOnPath1172" d="M817.0833333333297 887.7678571428575L856.8316022837682 887.7678571428575L856.8316022837682 1047.3947039753393L1001.3438032567069 1047.3947039753393" stroke="#323232" stroke-width="2.0" stroke-dasharray="none" fill="none" marker-end="url(#ProcessOnMarker1173)"/></g><g id="ProcessOnG1175" transform="matrix(1.0,0.0,0.0,1.0,1149.5238095238078,1151.1496089321147)" opacity="1.0"><path id="ProcessOnPath1176" d="M0.0 29.76031037414964C0.0 -9.92010345804988 190.47619047619196 -9.92010345804988 190.47619047619196 29.76031037414964C190.47619047619196 69.44072420634916 0.0 69.44072420634916 0.0 29.76031037414964Z" stroke="#323232" stroke-width="2.0" stroke-dasharray="none" opacity="1.0" fill="#ffffff"/><g id="ProcessOnG1177" transform="matrix(1.0,0.0,0.0,1.0,10.0,13.51031037414964)"><text id="ProcessOnText1178" fill="#000000" font-size="13" x="84.23809523809598" y="13.325" font-family="微软雅黑" font-weight="bold" font-style="normal" text-decoration="none" family="微软雅黑" text-anchor="middle" size="13">某种感情词总数</text><text id="ProcessOnText1179" fill="#000000" font-size="13" x="84.23809523809598" y="29.575" font-family="微软雅黑" font-weight="bold" font-style="normal" text-decoration="none" family="微软雅黑" text-anchor="middle" size="13">int[6]</text></g></g><g id="ProcessOnG1180" transform="matrix(1.0,0.0,0.0,1.0,915.8306950012116,1151.1033606150795)" opacity="1.0"><path id="ProcessOnPath1181" d="M0.0 29.76031037414964C0.0 -9.92010345804988 190.47619047619196 -9.92010345804988 190.47619047619196 29.76031037414964C190.47619047619196 69.44072420634916 0.0 69.44072420634916 0.0 29.76031037414964Z" stroke="#323232" stroke-width="2.0" stroke-dasharray="none" opacity="1.0" fill="#ffffff"/><g id="ProcessOnG1182" transform="matrix(1.0,0.0,0.0,1.0,10.0,5.38531037414964)"><text id="ProcessOnText1183" fill="#000000" font-size="13" x="84.23809523809598" y="13.325" font-family="微软雅黑" font-weight="bold" font-style="normal" text-decoration="none" family="微软雅黑" text-anchor="middle" size="13">某种感情下某词出现的次数</text><text id="ProcessOnText1184" fill="#000000" font-size="13" x="84.23809523809598" y="29.575" font-family="微软雅黑" font-weight="bold" font-style="normal" text-decoration="none" family="微软雅黑" text-anchor="middle" size="13">和</text><text id="ProcessOnText1185" fill="#000000" font-size="13" x="84.23809523809598" y="45.825" font-family="微软雅黑" font-weight="bold" font-style="normal" text-decoration="none" family="微软雅黑" text-anchor="middle" size="13">vector&lt;int&gt;[6]</text></g></g><g id="ProcessOnG1186" transform="matrix(1.0,0.0,0.0,1.0,883.269411941129,1250.0000000000005)" opacity="1.0"><path id="ProcessOnPath1187" d="M0.0 52.222222222221944L127.7777777777776 0.0L255.5555555555552 52.222222222221944L127.7777777777776 104.44444444444389L0.0 52.222222222221944Z" stroke="#323232" stroke-width="2.0" stroke-dasharray="none" opacity="1.0" fill="#ffffff"/><g id="ProcessOnG1188" transform="matrix(1.0,0.0,0.0,1.0,10.0,27.847222222221944)"><text id="ProcessOnText1189" fill="#000000" font-size="13" x="116.7777777777776" y="13.325" font-family="微软雅黑" font-weight="bold" font-style="normal" text-decoration="none" family="微软雅黑" text-anchor="middle" size="13">计算后验概率</text><text id="ProcessOnText1190" fill="#000000" font-size="13" x="116.7777777777776" y="29.575" font-family="微软雅黑" font-weight="bold" font-style="normal" text-decoration="none" family="微软雅黑" text-anchor="middle" size="13">连乘 { 某种感情下某词 } * 先验概率</text><text id="ProcessOnText1191" fill="#000000" font-size="13" x="116.7777777777776" y="45.825" font-family="微软雅黑" font-weight="bold" font-style="normal" text-decoration="none" family="微软雅黑" text-anchor="middle" size="13">double[6]</text></g></g><g id="ProcessOnG1192" transform="matrix(1.0,0.0,0.0,1.0,601.6666666666663,1267.6909722222224)" opacity="1.0"><path id="ProcessOnPath1193" d="M0.0 35.0L70.55555555555554 0.0L141.1111111111111 35.0L70.55555555555554 70.0L0.0 35.0Z" stroke="#323232" stroke-width="2.0" stroke-dasharray="none" opacity="1.0" fill="#ffffff"/><g id="ProcessOnG1194" transform="matrix(1.0,0.0,0.0,1.0,10.0,26.875)"><text id="ProcessOnText1195" fill="#000000" font-size="13" x="59.55555555555554" y="13.325" font-family="微软雅黑" font-weight="bold" font-style="normal" text-decoration="none" family="微软雅黑" text-anchor="middle" size="13">取最大概率的感情</text></g></g><g id="ProcessOnG1196"><path id="ProcessOnPath1197" d="M1112.4695092322636 1113.108989689625L1112.4695092322636 1132.1061751523523L1011.0687902393074 1132.1061751523523L1011.0687902393074 1135.8672926375798" stroke="#323232" stroke-width="2.0" stroke-dasharray="none" fill="none" marker-end="url(#ProcessOnMarker1198)"/></g><g id="ProcessOnG1200"><path id="ProcessOnPath1201" d="M1327.1428571428569 845.4389880952378L1349.6428571428569 845.4389880952378L1349.6428571428569 1121.1496089321147L1244.7619047619037 1121.1496089321147L1244.7619047619037 1135.913540954615" stroke="#323232" stroke-width="2.0" stroke-dasharray="none" fill="none" marker-end="url(#ProcessOnMarker1202)"/></g><g id="ProcessOnG1204"><path id="ProcessOnPath1205" d="M1252.5 1210.0L1252.5 1302.2222222222224L1154.0610354741837 1302.2222222222224" stroke="#323232" stroke-width="2.0" stroke-dasharray="none" fill="none" marker-end="url(#ProcessOnMarker1206)"/></g><g id="ProcessOnG1208"><path id="ProcessOnPath1209" d="M1011.0687902393075 1210.6239813633788L1011.0687902393075 1230.3119906816896L1011.0471897189066 1230.3119906816896L1011.0471897189066 1234.7639320225007" stroke="#323232" stroke-width="2.0" stroke-dasharray="none" fill="none" marker-end="url(#ProcessOnMarker1210)"/></g><g id="ProcessOnG1212"><path id="ProcessOnPath1213" d="M883.269411941129 1302.2222222222224L813.0235948594532 1302.2222222222224L813.0235948594532 1302.6909722222224L758.0138457552772 1302.6909722222224" stroke="#323232" stroke-width="2.0" stroke-dasharray="none" fill="none" marker-end="url(#ProcessOnMarker1214)"/></g><g id="ProcessOnG1216"><path id="ProcessOnPath1217" d="M601.6666666666663 1302.6909722222224L493.54166666666674 1302.6909722222224L493.54166666666674 1302.9126275510216L400.65273464416697 1302.9126275510216" stroke="#323232" stroke-width="2.0" stroke-dasharray="none" fill="none" marker-end="url(#ProcessOnMarker1218)"/></g></g></g></svg>