<svg xmlns="http://www.w3.org/2000/svg" xmlns:xlink="http://www.w3.org/1999/xlink" id="processonSvg1000" viewBox="164.9999999999997 351.24999999999994 1212.5000000000002 1151.25" width="1212.5000000000002" height="1151.25"><defs id="ProcessOnDefs1001"><marker id="ProcessOnMarker1021" markerUnits="userSpaceOnUse" orient="auto" markerWidth="16.23606797749979" markerHeight="10.550836550532098" viewBox="-1.0 -1.3763819204711736 16.23606797749979 10.550836550532098" refX="-1.0" refY="3.8990363547948754"><path id="ProcessOnPath1022" d="M12.0 3.8990363547948754L0.0 7.798072709589751V0.0Z" stroke="#323232" stroke-width="2.0" fill="#323232" transform="matrix(1.0,0.0,0.0,1.0,0.0,0.0)"/></marker><marker id="ProcessOnMarker1035" markerUnits="userSpaceOnUse" orient="auto" markerWidth="16.23606797749979" markerHeight="10.550836550532098" viewBox="-1.0 -1.3763819204711736 16.23606797749979 10.550836550532098" refX="-1.0" refY="3.8990363547948754"><path id="ProcessOnPath1036" d="M12.0 3.8990363547948754L0.0 7.798072709589751V0.0Z" stroke="#323232" stroke-width="2.0" fill="#323232" transform="matrix(1.0,0.0,0.0,1.0,0.0,0.0)"/></marker><marker id="ProcessOnMarker1039" markerUnits="userSpaceOnUse" orient="auto" markerWidth="16.23606797749979" markerHeight="10.550836550532098" viewBox="-1.0 -1.3763819204711736 16.23606797749979 10.550836550532098" refX="-1.0" refY="3.8990363547948754"><path id="ProcessOnPath1040" d="M12.0 3.8990363547948754L0.0 7.798072709589751V0.0Z" stroke="#323232" stroke-width="2.0" fill="#323232" transform="matrix(1.0,0.0,0.0,1.0,0.0,0.0)"/></marker><marker id="ProcessOnMarker1043" markerUnits="userSpaceOnUse" orient="auto" markerWidth="16.23606797749979" markerHeight="10.550836550532098" viewBox="-1.0 -1.3763819204711736 16.23606797749979 10.550836550532098" refX="-1.0" refY="3.8990363547948754"><path id="ProcessOnPath1044" d="M12.0 3.8990363547948754L0.0 7.798072709589751V0.0Z" stroke="#323232" stroke-width="2.0" fill="#323232" transform="matrix(1.0,0.0,0.0,1.0,0.0,0.0)"/></marker><marker id="ProcessOnMarker1060" markerUnits="userSpaceOnUse" orient="auto" markerWidth="16.23606797749979" markerHeight="10.550836550532098" viewBox="-1.0 -1.3763819204711736 16.23606797749979 10.550836550532098" refX="-1.0" refY="3.8990363547948754"><path id="ProcessOnPath1061" d="M12.0 3.8990363547948754L0.0 7.798072709589751V0.0Z" stroke="#323232" stroke-width="2.0" fill="#323232" transform="matrix(1.0,0.0,0.0,1.0,0.0,0.0)"/></marker><marker id="ProcessOnMarker1070" markerUnits="userSpaceOnUse" orient="auto" markerWidth="16.23606797749979" markerHeight="10.550836550532098" viewBox="-1.0 -1.3763819204711736 16.23606797749979 10.550836550532098" refX="-1.0" refY="3.8990363547948754"><path id="ProcessOnPath1071" d="M12.0 3.8990363547948754L0.0 7.798072709589751V0.0Z" stroke="#323232" stroke-width="2.0" fill="#323232" transform="matrix(1.0,0.0,0.0,1.0,0.0,0.0)"/></marker><marker id="ProcessOnMarker1074" markerUnits="userSpaceOnUse" orient="auto" markerWidth="16.23606797749979" markerHeight="10.550836550532098" viewBox="-1.0 -1.3763819204711736 16.23606797749979 10.550836550532098" refX="-1.0" refY="3.8990363547948754"><path id="ProcessOnPath1075" d="M12.0 3.8990363547948754L0.0 7.798072709589751V0.0Z" stroke="#323232" stroke-width="2.0" fill="#323232" transform="matrix(1.0,0.0,0.0,1.0,0.0,0.0)"/></marker><marker id="ProcessOnMarker1090" markerUnits="userSpaceOnUse" orient="auto" markerWidth="16.23606797749979" markerHeight="10.550836550532098" viewBox="-1.0 -1.3763819204711736 16.23606797749979 10.550836550532098" refX="-1.0" refY="3.8990363547948754"><path id="ProcessOnPath1091" d="M12.0 3.8990363547948754L0.0 7.798072709589751V0.0Z" stroke="#323232" stroke-width="2.0" fill="#323232" transform="matrix(1.0,0.0,0.0,1.0,0.0,0.0)"/></marker><marker id="ProcessOnMarker1094" markerUnits="userSpaceOnUse" orient="auto" markerWidth="16.23606797749979" markerHeight="10.550836550532098" viewBox="-1.0 -1.3763819204711736 16.23606797749979 10.550836550532098" refX="-1.0" refY="3.8990363547948754"><path id="ProcessOnPath1095" d="M12.0 3.8990363547948754L0.0 7.798072709589751V0.0Z" stroke="#323232" stroke-width="2.0" fill="#323232" transform="matrix(1.0,0.0,0.0,1.0,0.0,0.0)"/></marker><marker id="ProcessOnMarker1104" markerUnits="userSpaceOnUse" orient="auto" markerWidth="16.23606797749979" markerHeight="10.550836550532098" viewBox="-1.0 -1.3763819204711736 16.23606797749979 10.550836550532098" refX="-1.0" refY="3.8990363547948754"><path id="ProcessOnPath1105" d="M12.0 3.8990363547948754L0.0 7.798072709589751V0.0Z" stroke="#323232" stroke-width="2.0" fill="#323232" transform="matrix(1.0,0.0,0.0,1.0,0.0,0.0)"/></marker><marker id="ProcessOnMarker1108" markerUnits="userSpaceOnUse" orient="auto" markerWidth="16.23606797749979" markerHeight="10.550836550532098" viewBox="-1.0 -1.3763819204711736 16.23606797749979 10.550836550532098" refX="-1.0" refY="3.8990363547948754"><path id="ProcessOnPath1109" d="M12.0 3.8990363547948754L0.0 7.798072709589751V0.0Z" stroke="#323232" stroke-width="2.0" fill="#323232" transform="matrix(1.0,0.0,0.0,1.0,0.0,0.0)"/></marker><marker id="ProcessOnMarker1149" markerUnits="userSpaceOnUse" orient="auto" markerWidth="16.23606797749979" markerHeight="10.550836550532098" viewBox="-1.0 -1.3763819204711736 16.23606797749979 10.550836550532098" refX="-1.0" refY="3.8990363547948754"><path id="ProcessOnPath1150" d="M12.0 3.8990363547948754L0.0 7.798072709589751V0.0Z" stroke="#323232" stroke-width="2.0" fill="#323232" transform="matrix(1.0,0.0,0.0,1.0,0.0,0.0)"/></marker><marker id="ProcessOnMarker1153" markerUnits="userSpaceOnUse" orient="auto" markerWidth="16.23606797749979" markerHeight="10.550836550532098" viewBox="-1.0 -1.3763819204711736 16.23606797749979 10.550836550532098" refX="-1.0" refY="3.8990363547948754"><path id="ProcessOnPath1154" d="M12.0 3.8990363547948754L0.0 7.798072709589751V0.0Z" stroke="#323232" stroke-width="2.0" fill="#323232" transform="matrix(1.0,0.0,0.0,1.0,0.0,0.0)"/></marker><marker id="ProcessOnMarker1162" markerUnits="userSpaceOnUse" orient="auto" markerWidth="16.23606797749979" markerHeight="10.550836550532098" viewBox="-1.0 -1.3763819204711736 16.23606797749979 10.550836550532098" refX="-1.0" refY="3.8990363547948754"><path id="ProcessOnPath1163" d="M12.0 3.8990363547948754L0.0 7.798072709589751V0.0Z" stroke="#323232" stroke-width="2.0" fill="#323232" transform="matrix(1.0,0.0,0.0,1.0,0.0,0.0)"/></marker><marker id="ProcessOnMarker1172" markerUnits="userSpaceOnUse" orient="auto" markerWidth="16.23606797749979" markerHeight="10.550836550532098" viewBox="-1.0 -1.3763819204711736 16.23606797749979 10.550836550532098" refX="-1.0" refY="3.8990363547948754"><path id="ProcessOnPath1173" d="M12.0 3.8990363547948754L0.0 7.798072709589751V0.0Z" stroke="#323232" stroke-width="2.0" fill="#323232" transform="matrix(1.0,0.0,0.0,1.0,0.0,0.0)"/></marker><marker id="ProcessOnMarker1176" markerUnits="userSpaceOnUse" orient="auto" markerWidth="16.23606797749979" markerHeight="10.550836550532098" viewBox="-1.0 -1.3763819204711736 16.23606797749979 10.550836550532098" refX="-1.0" refY="3.8990363547948754"><path id="ProcessOnPath1177" d="M12.0 3.8990363547948754L0.0 7.798072709589751V0.0Z" stroke="#323232" stroke-width="2.0" fill="#323232" transform="matrix(1.0,0.0,0.0,1.0,0.0,0.0)"/></marker><marker id="ProcessOnMarker1180" markerUnits="userSpaceOnUse" orient="auto" markerWidth="16.23606797749979" markerHeight="10.550836550532098" viewBox="-1.0 -1.3763819204711736 16.23606797749979 10.550836550532098" refX="-1.0" refY="3.8990363547948754"><path id="ProcessOnPath1181" d="M12.0 3.8990363547948754L0.0 7.798072709589751V0.0Z" stroke="#323232" stroke-width="2.0" fill="#323232" transform="matrix(1.0,0.0,0.0,1.0,0.0,0.0)"/></marker><marker id="ProcessOnMarker1192" markerUnits="userSpaceOnUse" orient="auto" markerWidth="16.23606797749979" markerHeight="10.550836550532098" viewBox="-1.0 -1.3763819204711736 16.23606797749979 10.550836550532098" refX="-1.0" refY="3.8990363547948754"><path id="ProcessOnPath1193" d="M12.0 3.8990363547948754L0.0 7.798072709589751V0.0Z" stroke="#323232" stroke-width="2.0" fill="#323232" transform="matrix(1.0,0.0,0.0,1.0,0.0,0.0)"/></marker><marker id="ProcessOnMarker1196" markerUnits="userSpaceOnUse" orient="auto" markerWidth="16.23606797749979" markerHeight="10.550836550532098" viewBox="-1.0 -1.3763819204711736 16.23606797749979 10.550836550532098" refX="-1.0" refY="3.8990363547948754"><path id="ProcessOnPath1197" d="M12.0 3.8990363547948754L0.0 7.798072709589751V0.0Z" stroke="#323232" stroke-width="2.0" fill="#323232" transform="matrix(1.0,0.0,0.0,1.0,0.0,0.0)"/></marker><marker id="ProcessOnMarker1200" markerUnits="userSpaceOnUse" orient="auto" markerWidth="16.23606797749979" markerHeight="10.550836550532098" viewBox="-1.0 -1.3763819204711736 16.23606797749979 10.550836550532098" refX="-1.0" refY="3.8990363547948754"><path id="ProcessOnPath1201" d="M12.0 3.8990363547948754L0.0 7.798072709589751V0.0Z" stroke="#323232" stroke-width="2.0" fill="#323232" transform="matrix(1.0,0.0,0.0,1.0,0.0,0.0)"/></marker><marker id="ProcessOnMarker1204" markerUnits="userSpaceOnUse" orient="auto" markerWidth="16.23606797749979" markerHeight="10.550836550532098" viewBox="-1.0 -1.3763819204711736 16.23606797749979 10.550836550532098" refX="-1.0" refY="3.8990363547948754"><path id="ProcessOnPath1205" d="M12.0 3.8990363547948754L0.0 7.798072709589751V0.0Z" stroke="#323232" stroke-width="2.0" fill="#323232" transform="matrix(1.0,0.0,0.0,1.0,0.0,0.0)"/></marker></defs><g id="ProcessOnG1002"><path id="ProcessOnPath1003" d="M164.9999999999997 351.24999999999994H1377.5V1502.5H164.99999999999977V351.25Z" fill="none"/><g id="ProcessOnG1004"><g id="ProcessOnG1005" transform="matrix(1.0,0.0,0.0,1.0,647.440476190475,921.9642857142856)" opacity="1.0"><path id="ProcessOnPath1006" d="M0.0 0.0L303.8095238095259 0.0L303.8095238095259 249.10714285714312L0.0 249.10714285714312Z" stroke="#323232" stroke-width="2.0" stroke-dasharray="none" opacity="1.0" fill="#ffffff"/><g id="ProcessOnG1007" transform="matrix(1.0,0.0,0.0,1.0,10.0,111.42857142857156)"><text id="ProcessOnText1008" fill="#000000" font-size="21" x="0.0" y="21.525" font-family="微软雅黑" font-weight="bold" font-style="normal" text-decoration="none" family="微软雅黑" text-anchor="start" size="21">训练集</text></g></g><g id="ProcessOnG1009" transform="matrix(1.0,0.0,0.0,1.0,617.5833333333334,371.24999999999994)" opacity="1.0"><path id="ProcessOnPath1010" d="M0.0 0.0L591.1666666666666 0.0L591.1666666666666 482.50000000000006L0.0 482.50000000000006Z" stroke="#323232" stroke-width="2.0" stroke-dasharray="none" opacity="1.0" fill="#ffffff"/></g><g id="ProcessOnG1011" transform="matrix(1.0,0.0,0.0,1.0,787.3333333333326,502.6666666666668)" opacity="1.0"><path id="ProcessOnPath1012" d="M0.0 35.0L45.0 0.0L90.0 35.0L45.0 70.0L0.0 35.0Z" stroke="#323232" stroke-width="2.0" stroke-dasharray="none" opacity="1.0" fill="#ffffff"/><g id="ProcessOnG1013" transform="matrix(1.0,0.0,0.0,1.0,10.0,26.875)"><text id="ProcessOnText1014" fill="#000000" font-size="13" x="34.0" y="13.325" font-family="微软雅黑" font-weight="bold" font-style="normal" text-decoration="none" family="微软雅黑" text-anchor="middle" size="13">切割</text></g></g><g id="ProcessOnG1015" transform="matrix(1.0,0.0,0.0,1.0,654.3333333333334,512.6666666666667)" opacity="1.0"><path id="ProcessOnPath1016" d="M16.666666666666668 0.0L83.33333333333333 0.0C105.55555555555556 0.0 105.55555555555556 50.0 83.33333333333333 50.0L16.666666666666668 50.0C-5.555555555555556 50.0 -5.555555555555556 0.0 16.666666666666668 0.0Z" stroke="#323232" stroke-width="2.0" stroke-dasharray="none" opacity="1.0" fill="#ffffff"/><g id="ProcessOnG1017" transform="matrix(1.0,0.0,0.0,1.0,10.0,16.875)"><text id="ProcessOnText1018" fill="#000000" font-size="13" x="39.0" y="13.325" font-family="微软雅黑" font-weight="bold" font-style="normal" text-decoration="none" family="微软雅黑" text-anchor="middle" size="13">文件</text></g></g><g id="ProcessOnG1019"><path id="ProcessOnPath1020" d="M754.3333333333329 537.6666666666666L770.8333333333328 537.6666666666666L770.8333333333328 537.6666666666666L772.0972653558327 537.6666666666666" stroke="#323232" stroke-width="2.0" stroke-dasharray="none" fill="none" marker-end="url(#ProcessOnMarker1021)"/></g><g id="ProcessOnG1023" transform="matrix(1.0,0.0,0.0,1.0,956.2083333333328,379.6666666666667)" opacity="1.0"><path id="ProcessOnPath1024" d="M0.0 40.5L107.25 0.0L214.5 40.5L107.25 81.0L0.0 40.5Z" stroke="#323232" stroke-width="2.0" stroke-dasharray="none" opacity="1.0" fill="#ffffff"/><g id="ProcessOnG1025" transform="matrix(1.0,0.0,0.0,1.0,10.0,25.5)"><text id="ProcessOnText1026" fill="#000000" font-size="12" x="96.25" y="12.3" font-family="微软雅黑" font-weight="bold" font-style="normal" text-decoration="none" family="微软雅黑" text-anchor="middle" size="12">加到词单(不重复)</text><text id="ProcessOnText1027" fill="#000000" font-size="12" x="96.25" y="27.3" font-family="微软雅黑" font-weight="bold" font-style="normal" text-decoration="none" family="微软雅黑" text-anchor="middle" size="12">map&lt;string,int&gt;</text></g></g><g id="ProcessOnG1028" transform="matrix(1.0,0.0,0.0,1.0,959.2083333333328,605.1666666666667)" opacity="1.0"><path id="ProcessOnPath1029" d="M0.0 39.5L103.75 0.0L207.5 39.5L103.75 79.0L0.0 39.5Z" stroke="#323232" stroke-width="2.0" stroke-dasharray="none" opacity="1.0" fill="#ffffff"/><g id="ProcessOnG1030" transform="matrix(1.0,0.0,0.0,1.0,10.0,23.25)"><text id="ProcessOnText1031" fill="#000000" font-size="13" x="92.75" y="13.325" font-family="微软雅黑" font-weight="bold" font-style="normal" text-decoration="none" family="微软雅黑" text-anchor="middle" size="13">加到文本矩阵</text><text id="ProcessOnText1032" fill="#000000" font-size="13" x="92.75" y="29.575" font-family="微软雅黑" font-weight="bold" font-style="normal" text-decoration="none" family="微软雅黑" text-anchor="middle" size="13">vector&lt;vector&lt;int&gt;&gt;</text></g></g><g id="ProcessOnG1033"><path id="ProcessOnPath1034" d="M832.3333333333326 502.6666666666668L832.3333333333326 420.1666666666667L940.972265355833 420.1666666666667" stroke="#323232" stroke-width="2.0" stroke-dasharray="none" fill="none" marker-end="url(#ProcessOnMarker1035)"/></g><g id="ProcessOnG1037"><path id="ProcessOnPath1038" d="M832.3333333333326 572.6666666666666L832.3333333333326 644.6666666666665L943.972265355833 644.6666666666665" stroke="#323232" stroke-width="2.0" stroke-dasharray="none" fill="none" marker-end="url(#ProcessOnMarker1039)"/></g><g id="ProcessOnG1041"><path id="ProcessOnPath1042" d="M1062.958333333333 684.1666666666664L1062.958333333333 710.4166666666662L1062.958333333333 710.4166666666662L1062.958333333333 721.4305986891663" stroke="#323232" stroke-width="2.0" stroke-dasharray="none" fill="none" marker-end="url(#ProcessOnMarker1043)"/></g><g id="ProcessOnG1045" transform="matrix(1.0,0.0,0.0,1.0,924.7083333333328,736.6666666666662)" opacity="1.0"><path id="ProcessOnPath1046" d="M0.0 53.5L138.25 0.0L276.5 53.5L138.25 107.0L0.0 53.5Z" stroke="#323232" stroke-width="2.0" stroke-dasharray="none" opacity="1.0" fill="#ffffff"/><g id="ProcessOnG1047" transform="matrix(1.0,0.0,0.0,1.0,10.0,21.0)"><text id="ProcessOnText1048" fill="#000000" font-size="13" x="127.25" y="13.325" font-family="微软雅黑" font-weight="bold" font-style="normal" text-decoration="none" family="微软雅黑" text-anchor="middle" size="13">计算tf矩阵</text><text id="ProcessOnText1049" fill="#000000" font-size="13" x="127.25" y="29.575" font-family="微软雅黑" font-weight="bold" font-style="normal" text-decoration="none" family="微软雅黑" text-anchor="middle" size="13">vector&lt;map&lt;int,double&gt;&gt;</text><text id="ProcessOnText1050" fill="#000000" font-size="13" x="127.25" y="45.825" font-family="微软雅黑" font-weight="bold" font-style="normal" text-decoration="none" family="微软雅黑" text-anchor="middle" size="13">map-&gt;first：词的id</text><text id="ProcessOnText1051" fill="#000000" font-size="13" x="127.25" y="62.075" font-family="微软雅黑" font-weight="bold" font-style="normal" text-decoration="none" family="微软雅黑" text-anchor="middle" size="13">map-&gt;second：tf</text></g></g><g id="ProcessOnG1052" transform="matrix(1.0,0.0,0.0,1.0,978.5833333333327,491.1666666666669)" opacity="1.0"><path id="ProcessOnPath1053" d="M0.0 46.5L84.375 0.0L168.75 46.5L84.375 93.0L0.0 46.5Z" stroke="#323232" stroke-width="2.0" stroke-dasharray="none" opacity="1.0" fill="#ffffff"/><g id="ProcessOnG1054" transform="matrix(1.0,0.0,0.0,1.0,10.0,22.125)"><text id="ProcessOnText1055" fill="#000000" font-size="13" x="73.375" y="13.325" font-family="微软雅黑" font-weight="bold" font-style="normal" text-decoration="none" family="微软雅黑" text-anchor="middle" size="13">感情概率记录</text><text id="ProcessOnText1056" fill="#000000" font-size="13" x="73.375" y="29.575" font-family="微软雅黑" font-weight="bold" font-style="normal" text-decoration="none" family="微软雅黑" text-anchor="middle" size="13">vector&lt;double&gt;[6]</text><text id="ProcessOnText1057" fill="#000000" font-size="13" x="73.375" y="45.825" font-family="微软雅黑" font-weight="bold" font-style="normal" text-decoration="none" family="微软雅黑" text-anchor="middle" size="13"></text></g></g><g id="ProcessOnG1058"><path id="ProcessOnPath1059" d="M877.3333333333327 537.6666666666666L889.8333333333327 537.6666666666666L889.8333333333327 537.6666666666666L890.8333333333327 537.6666666666666" stroke="#323232" stroke-width="2.0" stroke-dasharray="none" fill="none" marker-end="url(#ProcessOnMarker1060)"/></g><g id="ProcessOnG1062" transform="matrix(1.0,0.0,0.0,1.0,902.3333333333327,513.1666666666667)" opacity="1.0"><path id="ProcessOnPath1063" d="M0.0 0.0L53.875 0.0L53.875 49.0L0.0 49.0Z" stroke="#323232" stroke-width="2.0" stroke-dasharray="none" opacity="1.0" fill="#ffffff"/><g id="ProcessOnG1064" transform="matrix(1.0,0.0,0.0,1.0,10.0,0.125)"><text id="ProcessOnText1065" fill="#000000" font-size="13" x="15.9375" y="13.325" font-family="微软雅黑" font-weight="bold" font-style="normal" text-decoration="none" family="微软雅黑" text-anchor="middle" size="13">感情</text><text id="ProcessOnText1066" fill="#000000" font-size="13" x="15.9375" y="29.575" font-family="微软雅黑" font-weight="bold" font-style="normal" text-decoration="none" family="微软雅黑" text-anchor="middle" size="13">映射</text><text id="ProcessOnText1067" fill="#000000" font-size="13" x="15.9375" y="45.825" font-family="微软雅黑" font-weight="bold" font-style="normal" text-decoration="none" family="微软雅黑" text-anchor="middle" size="13">map</text></g></g><g id="ProcessOnG1068"><path id="ProcessOnPath1069" d="M956.2083333333328 537.6666666666666L967.3958333333328 537.6666666666666L967.3958333333328 537.6666666666666L968.3958333333328 537.6666666666666" stroke="#323232" stroke-width="2.0" stroke-dasharray="none" fill="none" marker-end="url(#ProcessOnMarker1070)"/></g><g id="ProcessOnG1072"><path id="ProcessOnPath1073" d="M617.5833333333334 612.4999999999998L623.8333333333334 612.4999999999998L623.8333333333334 537.5L624.3333333333334 537.5L624.3333333333334 537.6666666666667L639.0972653558335 537.6666666666667" stroke="#323232" stroke-width="2.0" stroke-dasharray="none" fill="none" marker-end="url(#ProcessOnMarker1074)"/></g><g id="ProcessOnG1076" transform="matrix(1.0,0.0,0.0,1.0,316.2635269013875,757.7777777777774)" opacity="1.0"><path id="ProcessOnPath1077" d="M0.0 0.0L100.0 0.0L100.0 70.0L0.0 70.0Z" stroke="#323232" stroke-width="2.0" stroke-dasharray="none" opacity="1.0" fill="#ffffff"/><g id="ProcessOnG1078" transform="matrix(1.0,0.0,0.0,1.0,10.0,26.875)"><text id="ProcessOnText1079" fill="#000000" font-size="13" x="39.0" y="13.325" font-family="微软雅黑" font-weight="bold" font-style="normal" text-decoration="none" family="微软雅黑" text-anchor="middle" size="13">不计算tf矩阵</text></g></g><g id="ProcessOnG1080" transform="matrix(1.0,0.0,0.0,1.0,246.66666666666666,520.0)" opacity="1.0"><path id="ProcessOnPath1081" d="M16.666666666666668 0.0L83.33333333333333 0.0C105.55555555555556 0.0 105.55555555555556 50.0 83.33333333333333 50.0L16.666666666666668 50.0C-5.555555555555556 50.0 -5.555555555555556 0.0 16.666666666666668 0.0Z" stroke="#323232" stroke-width="2.0" stroke-dasharray="none" opacity="1.0" fill="#ffffff"/><g id="ProcessOnG1082" transform="matrix(1.0,0.0,0.0,1.0,10.0,16.875)"><text id="ProcessOnText1083" fill="#000000" font-size="13" x="39.0" y="13.325" font-family="微软雅黑" font-weight="bold" font-style="normal" text-decoration="none" family="微软雅黑" text-anchor="middle" size="13">训练集</text></g></g><g id="ProcessOnG1084" transform="matrix(1.0,0.0,0.0,1.0,244.44444444444431,638.3333333333335)" opacity="1.0"><path id="ProcessOnPath1085" d="M16.666666666666668 0.0L83.33333333333333 0.0C105.55555555555556 0.0 105.55555555555556 50.0 83.33333333333333 50.0L16.666666666666668 50.0C-5.555555555555556 50.0 -5.555555555555556 0.0 16.666666666666668 0.0Z" stroke="#323232" stroke-width="2.0" stroke-dasharray="none" opacity="1.0" fill="#ffffff"/><g id="ProcessOnG1086" transform="matrix(1.0,0.0,0.0,1.0,10.0,16.875)"><text id="ProcessOnText1087" fill="#000000" font-size="13" x="39.0" y="13.325" font-family="微软雅黑" font-weight="bold" font-style="normal" text-decoration="none" family="微软雅黑" text-anchor="middle" size="13">验证集</text></g></g><g id="ProcessOnG1088"><path id="ProcessOnPath1089" d="M346.66666666666663 545.0L482.125 545.0L482.125 612.5L602.3472653558335 612.5" stroke="#323232" stroke-width="2.0" stroke-dasharray="none" fill="none" marker-end="url(#ProcessOnMarker1090)"/></g><g id="ProcessOnG1092"><path id="ProcessOnPath1093" d="M294.44444444444434 688.3333333333335L294.44444444444434 723.0555555555554L366.2635269013876 723.0555555555554L366.2635269013876 742.5417098002775" stroke="#323232" stroke-width="2.0" stroke-dasharray="none" fill="none" marker-end="url(#ProcessOnMarker1094)"/></g><g id="ProcessOnG1096" transform="matrix(1.0,0.0,0.0,1.0,184.9999999999997,757.7777777777774)" opacity="1.0"><path id="ProcessOnPath1097" d="M0.0 0.0L100.0 0.0L100.0 70.0L0.0 70.0Z" stroke="#323232" stroke-width="2.0" stroke-dasharray="none" opacity="1.0" fill="#ffffff"/><g id="ProcessOnG1098" transform="matrix(1.0,0.0,0.0,1.0,10.0,10.625)"><text id="ProcessOnText1099" fill="#000000" font-size="13" x="39.0" y="13.325" font-family="微软雅黑" font-weight="bold" font-style="normal" text-decoration="none" family="微软雅黑" text-anchor="middle" size="13">不在训练集词</text><text id="ProcessOnText1100" fill="#000000" font-size="13" x="39.0" y="29.575" font-family="微软雅黑" font-weight="bold" font-style="normal" text-decoration="none" family="微软雅黑" text-anchor="middle" size="13">单不插入文本</text><text id="ProcessOnText1101" fill="#000000" font-size="13" x="39.0" y="45.825" font-family="微软雅黑" font-weight="bold" font-style="normal" text-decoration="none" family="微软雅黑" text-anchor="middle" size="13">矩阵</text></g></g><g id="ProcessOnG1102"><path id="ProcessOnPath1103" d="M294.44444444444434 688.3333333333335L294.44444444444434 723.0555555555554L234.9999999999997 723.0555555555554L234.9999999999997 742.5417098002775" stroke="#323232" stroke-width="2.0" stroke-dasharray="none" fill="none" marker-end="url(#ProcessOnMarker1104)"/></g><g id="ProcessOnG1106"><path id="ProcessOnPath1107" d="M344.44444444444434 663.3333333333335L481.01388888888886 663.3333333333335L481.01388888888886 612.5L602.3472653558335 612.5" stroke="#323232" stroke-width="2.0" stroke-dasharray="none" fill="none" marker-end="url(#ProcessOnMarker1108)"/></g><g id="ProcessOnG1110" transform="matrix(1.0,0.0,0.0,1.0,734.8809523809505,1015.8928571428571)" opacity="1.0"><path id="ProcessOnPath1111" d="M0.0 30.625C0.0 -10.208333333333334 197.91666666666742 -10.208333333333334 197.91666666666742 30.625C197.91666666666742 71.45833333333333 0.0 71.45833333333333 0.0 30.625Z" stroke="#323232" stroke-width="2.0" stroke-dasharray="none" opacity="1.0" fill="#ffffff"/><g id="ProcessOnG1112" transform="matrix(1.0,0.0,0.0,1.0,10.0,14.375)"><text id="ProcessOnText1113" fill="#000000" font-size="13" x="87.95833333333371" y="13.325" font-family="微软雅黑" font-weight="bold" font-style="normal" text-decoration="none" family="微软雅黑" text-anchor="middle" size="13">文本矩阵</text><text id="ProcessOnText1114" fill="#000000" font-size="13" x="87.95833333333371" y="29.575" font-family="微软雅黑" font-weight="bold" font-style="normal" text-decoration="none" family="微软雅黑" text-anchor="middle" size="13">vector&lt;vector&lt;int&gt;&gt;</text></g></g><g id="ProcessOnG1115" transform="matrix(1.0,0.0,0.0,1.0,729.8809523809505,1092.1428571428569)" opacity="1.0"><path id="ProcessOnPath1116" d="M0.0 30.625C0.0 -10.208333333333334 207.91666666666742 -10.208333333333334 207.91666666666742 30.625C207.91666666666742 71.45833333333333 0.0 71.45833333333333 0.0 30.625Z" stroke="#323232" stroke-width="2.0" stroke-dasharray="none" opacity="1.0" fill="#ffffff"/><g id="ProcessOnG1117" transform="matrix(1.0,0.0,0.0,1.0,10.0,14.375)"><text id="ProcessOnText1118" fill="#000000" font-size="13" x="92.95833333333371" y="13.325" font-family="微软雅黑" font-weight="bold" font-style="normal" text-decoration="none" family="微软雅黑" text-anchor="middle" size="13">tf矩阵</text><text id="ProcessOnText1119" fill="#000000" font-size="13" x="92.95833333333371" y="29.575" font-family="微软雅黑" font-weight="bold" font-style="normal" text-decoration="none" family="微软雅黑" text-anchor="middle" size="13">vector&lt;map&lt;int,double&gt;&gt;</text></g></g><g id="ProcessOnG1120" transform="matrix(1.0,0.0,0.0,1.0,724.8809523809505,938.2886904761904)" opacity="1.0"><path id="ProcessOnPath1121" d="M0.0 30.625C0.0 -10.208333333333334 207.91666666666742 -10.208333333333334 207.91666666666742 30.625C207.91666666666742 71.45833333333333 0.0 71.45833333333333 0.0 30.625Z" stroke="#323232" stroke-width="2.0" stroke-dasharray="none" opacity="1.0" fill="#ffffff"/><g id="ProcessOnG1122" transform="matrix(1.0,0.0,0.0,1.0,10.0,14.375)"><text id="ProcessOnText1123" fill="#000000" font-size="13" x="92.95833333333371" y="13.325" font-family="微软雅黑" font-weight="bold" font-style="normal" text-decoration="none" family="微软雅黑" text-anchor="middle" size="13">感情概率记录</text><text id="ProcessOnText1124" fill="#000000" font-size="13" x="92.95833333333371" y="29.575" font-family="微软雅黑" font-weight="bold" font-style="normal" text-decoration="none" family="微软雅黑" text-anchor="middle" size="13">vector&lt;double&gt;[6]</text></g></g><g id="ProcessOnG1125" transform="matrix(1.0,0.0,0.0,1.0,647.440476190475,1190.7823129251703)" opacity="1.0"><path id="ProcessOnPath1126" d="M0.0 0.0L303.8095238095259 0.0L303.8095238095259 165.46768707482966L0.0 165.46768707482966Z" stroke="#323232" stroke-width="2.0" stroke-dasharray="none" opacity="1.0" fill="#ffffff"/><g id="ProcessOnG1127" transform="matrix(1.0,0.0,0.0,1.0,10.0,69.60884353741483)"><text id="ProcessOnText1128" fill="#000000" font-size="21" x="0.0" y="21.525" font-family="微软雅黑" font-weight="bold" font-style="normal" text-decoration="none" family="微软雅黑" text-anchor="start" size="21">验证集</text></g></g><g id="ProcessOnG1129" transform="matrix(1.0,0.0,0.0,1.0,732.4330853080123,1281.9558586641122)" opacity="1.0"><path id="ProcessOnPath1130" d="M0.0 29.72673592058662C0.0 -9.908911973528873 192.376055354537 -9.908911973528873 192.376055354537 29.72673592058662C192.376055354537 69.36238381470211 0.0 69.36238381470211 0.0 29.72673592058662Z" stroke="#323232" stroke-width="2.0" stroke-dasharray="none" opacity="1.0" fill="#ffffff"/><g id="ProcessOnG1131" transform="matrix(1.0,0.0,0.0,1.0,10.0,13.47673592058662)"><text id="ProcessOnText1132" fill="#000000" font-size="13" x="85.1880276772685" y="13.325" font-family="微软雅黑" font-weight="bold" font-style="normal" text-decoration="none" family="微软雅黑" text-anchor="middle" size="13">文本矩阵</text><text id="ProcessOnText1133" fill="#000000" font-size="13" x="85.1880276772685" y="29.575" font-family="微软雅黑" font-weight="bold" font-style="normal" text-decoration="none" family="微软雅黑" text-anchor="middle" size="13">vector&lt;vector&lt;int&gt;&gt;</text></g></g><g id="ProcessOnG1134" transform="matrix(1.0,0.0,0.0,1.0,722.7130319848357,1206.627905395959)" opacity="1.0"><path id="ProcessOnPath1135" d="M0.0 29.72673592058662C0.0 -9.908911973528873 202.09610867771354 -9.908911973528873 202.09610867771354 29.72673592058662C202.09610867771354 69.36238381470211 0.0 69.36238381470211 0.0 29.72673592058662Z" stroke="#323232" stroke-width="2.0" stroke-dasharray="none" opacity="1.0" fill="#ffffff"/><g id="ProcessOnG1136" transform="matrix(1.0,0.0,0.0,1.0,10.0,13.47673592058662)"><text id="ProcessOnText1137" fill="#000000" font-size="13" x="90.04805433885677" y="13.325" font-family="微软雅黑" font-weight="bold" font-style="normal" text-decoration="none" family="微软雅黑" text-anchor="middle" size="13">感情概率记录</text><text id="ProcessOnText1138" fill="#000000" font-size="13" x="90.04805433885677" y="29.575" font-family="微软雅黑" font-weight="bold" font-style="normal" text-decoration="none" family="微软雅黑" text-anchor="middle" size="13">vector&lt;double&gt;[6]</text></g></g><g id="ProcessOnG1139" transform="matrix(1.0,0.0,0.0,1.0,540.5917575288142,1411.7187500000002)" opacity="1.0"><path id="ProcessOnPath1140" d="M0.0 32.109053497942625L100.00000000000045 0.0L200.0000000000009 32.109053497942625L100.00000000000045 64.21810699588525L0.0 32.109053497942625Z" stroke="#323232" stroke-width="2.0" stroke-dasharray="none" opacity="1.0" fill="#ffffff"/><g id="ProcessOnG1141" transform="matrix(1.0,0.0,0.0,1.0,10.0,23.984053497942625)"><text id="ProcessOnText1142" fill="#000000" font-size="13" x="89.00000000000045" y="13.325" font-family="微软雅黑" font-weight="bold" font-style="normal" text-decoration="none" family="微软雅黑" text-anchor="middle" size="13">归一化</text></g></g><g id="ProcessOnG1143" transform="matrix(1.0,0.0,0.0,1.0,264.1666666666672,1131.6626275510214)" opacity="1.0"><path id="ProcessOnPath1144" d="M16.666666666666668 0.0L83.33333333333333 0.0C105.55555555555556 0.0 105.55555555555556 50.0 83.33333333333333 50.0L16.666666666666668 50.0C-5.555555555555556 50.0 -5.555555555555556 0.0 16.666666666666668 0.0Z" stroke="#323232" stroke-width="2.0" stroke-dasharray="none" opacity="1.0" fill="#ffffff"/><g id="ProcessOnG1145" transform="matrix(1.0,0.0,0.0,1.0,10.0,16.875)"><text id="ProcessOnText1146" fill="#000000" font-size="13" x="39.0" y="13.325" font-family="微软雅黑" font-weight="bold" font-style="normal" text-decoration="none" family="微软雅黑" text-anchor="middle" size="13">输出结果</text></g></g><g id="ProcessOnG1147"><path id="ProcessOnPath1148" d="M913.1666666666666 853.75L913.1666666666666 883.75L617.440476190475 883.75L617.440476190475 1046.5178571428569L632.2044082129752 1046.5178571428569" stroke="#323232" stroke-width="2.0" stroke-dasharray="none" fill="none" marker-end="url(#ProcessOnMarker1149)"/></g><g id="ProcessOnG1151"><path id="ProcessOnPath1152" d="M913.1666666666666 853.75L913.1666666666666 883.75L617.440476190475 883.75L617.440476190475 1273.516156462585L632.2044082129752 1273.516156462585" stroke="#323232" stroke-width="2.0" stroke-dasharray="none" fill="none" marker-end="url(#ProcessOnMarker1153)"/></g><g id="ProcessOnG1155" transform="matrix(1.0,0.0,0.0,1.0,801.9735508967024,1413.75)" opacity="1.0"><path id="ProcessOnPath1156" d="M0.0 29.81738683127594C0.0 -9.939128943758647 102.66666666666742 -9.939128943758647 102.66666666666742 29.81738683127594C102.66666666666742 69.57390260631053 0.0 69.57390260631053 0.0 29.81738683127594Z" stroke="#323232" stroke-width="2.0" stroke-dasharray="none" opacity="1.0" fill="#ffffff"/><g id="ProcessOnG1157" transform="matrix(1.0,0.0,0.0,1.0,10.0,13.56738683127594)"><text id="ProcessOnText1158" fill="#000000" font-size="13" x="40.33333333333371" y="13.325" font-family="微软雅黑" font-weight="bold" font-style="normal" text-decoration="none" family="微软雅黑" text-anchor="middle" size="13">感情概率结果</text><text id="ProcessOnText1159" fill="#000000" font-size="13" x="40.33333333333371" y="29.575" font-family="微软雅黑" font-weight="bold" font-style="normal" text-decoration="none" family="微软雅黑" text-anchor="middle" size="13">double[6]</text></g></g><g id="ProcessOnG1160"><path id="ProcessOnPath1161" d="M937.7976190476179 1122.7678571428569L992.0269009005503 1122.7678571428569L992.0269009005503 1122.9084123883924L1031.020114775983 1122.9084123883924" stroke="#323232" stroke-width="2.0" stroke-dasharray="none" fill="none" marker-end="url(#ProcessOnMarker1162)"/></g><g id="ProcessOnG1164" transform="matrix(1.0,0.0,0.0,1.0,1046.2561827534828,1081.6416713169642)" opacity="1.0"><path id="ProcessOnPath1165" d="M0.0 41.26674107142833L110.99426740557226 0.0L221.98853481114452 41.26674107142833L110.99426740557226 82.53348214285666Z" stroke="#323232" stroke-width="2.0" stroke-dasharray="none" opacity="1.0" fill="#ffffff"/><g id="ProcessOnG1166" transform="matrix(1.0,0.0,0.0,1.0,10.0,17.304408482142613)"><text id="ProcessOnText1167" fill="#000000" font-size="13" x="99.99426740557226" y="13.325" font-family="微软雅黑" font-weight="normal" font-style="normal" text-decoration="none" family="微软雅黑" text-anchor="middle" size="13">计算</text><text id="ProcessOnText1168" fill="#000000" font-size="13" x="99.99426740557226" y="29.575" font-family="微软雅黑" font-weight="normal" font-style="normal" text-decoration="none" family="微软雅黑" text-anchor="middle" size="13">某一行训练集的感情概率贡献</text><text id="ProcessOnText1169" fill="#000000" font-size="13" x="99.99426740557226" y="45.825" font-family="微软雅黑" font-weight="normal" font-style="normal" text-decoration="none" family="微软雅黑" text-anchor="middle" size="13"></text></g></g><g id="ProcessOnG1170"><path id="ProcessOnPath1171" d="M932.7976190476179 968.9136904761904L1157.2504501590552 968.9136904761904L1157.2504501590552 1066.4056033394645" stroke="#323232" stroke-width="2.0" stroke-dasharray="none" fill="none" marker-end="url(#ProcessOnMarker1172)"/></g><g id="ProcessOnG1174"><path id="ProcessOnPath1175" d="M924.8091406625493 1311.6825945846988L1157.2504501590552 1311.6825945846988L1157.2504501590552 1179.4112214373206" stroke="#323232" stroke-width="2.0" stroke-dasharray="none" fill="none" marker-end="url(#ProcessOnMarker1176)"/></g><g id="ProcessOnG1178"><path id="ProcessOnPath1179" d="M1268.2447175646273 1122.9084123883927L1297.5 1122.9084123883927L1297.5 1227.6247951177381" stroke="#323232" stroke-width="2.0" stroke-dasharray="none" fill="none" marker-end="url(#ProcessOnMarker1180)"/></g><g id="ProcessOnG1182" transform="matrix(1.0,0.0,0.0,1.0,1237.5,1242.8608630952378)" opacity="1.0"><path id="ProcessOnPath1183" d="M0.0 40.0L60.0 0.0L120.0 40.0L60.0 80.0Z" stroke="#323232" stroke-width="2.0" stroke-dasharray="none" opacity="1.0" fill="#ffffff"/><g id="ProcessOnG1184" transform="matrix(1.0,0.0,0.0,1.0,10.0,32.275)"><text id="ProcessOnText1185" fill="#000000" font-size="13" x="49.0" y="13.325" font-family="微软雅黑" font-weight="bold" font-style="normal" text-decoration="none" family="微软雅黑" text-anchor="middle" size="13">全部训练集求和</text></g></g><g id="ProcessOnG1186" transform="matrix(1.0,0.0,0.0,1.0,939.5277125366338,1402.5)" opacity="1.0"><path id="ProcessOnPath1187" d="M0.0 40.0L60.0 0.0L120.0 40.0L60.0 80.0Z" stroke="#323232" stroke-width="2.0" stroke-dasharray="none" opacity="1.0" fill="#ffffff"/><g id="ProcessOnG1188" transform="matrix(1.0,0.0,0.0,1.0,10.0,32.275)"><text id="ProcessOnText1189" fill="#000000" font-size="13" x="49.0" y="13.325" font-family="微软雅黑" font-weight="normal" font-style="normal" text-decoration="none" family="微软雅黑" text-anchor="middle" size="13">得出感情概率</text></g></g><g id="ProcessOnG1190"><path id="ProcessOnPath1191" d="M1297.5 1322.8608630952378L1297.5 1442.5L1074.7637805141333 1442.5" stroke="#323232" stroke-width="2.0" stroke-dasharray="none" fill="none" marker-end="url(#ProcessOnMarker1192)"/></g><g id="ProcessOnG1194"><path id="ProcessOnPath1195" d="M939.5277125366338 1442.5L922.0839650500018 1442.5L922.0839650500018 1443.567386831276L919.8762855408696 1443.567386831276" stroke="#323232" stroke-width="2.0" stroke-dasharray="none" fill="none" marker-end="url(#ProcessOnMarker1196)"/></g><g id="ProcessOnG1198"><path id="ProcessOnPath1199" d="M801.9735508967024 1443.567386831276L771.2826542127588 1443.567386831276L771.2826542127588 1443.8278034979428L755.827825506315 1443.8278034979428" stroke="#323232" stroke-width="2.0" stroke-dasharray="none" fill="none" marker-end="url(#ProcessOnMarker1200)"/></g><g id="ProcessOnG1202"><path id="ProcessOnPath1203" d="M540.5917575288142 1443.8278034979428L452.3792120977407 1443.8278034979428L452.3792120977407 1156.6626275510214L379.40273464416697 1156.6626275510214" stroke="#323232" stroke-width="2.0" stroke-dasharray="none" fill="none" marker-end="url(#ProcessOnMarker1204)"/></g></g></g></svg>